<svg width="81" height="26" viewBox="0 0 81 26" fill="none" xmlns="http://www.w3.org/2000/svg">
<path d="M42.9195 6.62802C42.9195 7.52892 42.1938 8.25465 41.2929 8.25465C40.392 8.25465 39.6662 7.52892 39.6662 6.62802C39.6662 5.72712 40.3669 5.0014 41.2929 5.0014C42.2188 5.02642 42.9195 5.75215 42.9195 6.62802ZM36.2128 9.9063C36.2128 10.0565 36.2128 10.3067 36.2128 10.3067C36.2128 10.3067 35.437 9.3057 33.7854 9.3057C31.0576 9.3057 28.9305 11.3828 28.9305 14.2607C28.9305 17.1135 31.0326 19.2156 33.7854 19.2156C35.462 19.2156 36.2128 18.1896 36.2128 18.1896V18.615C36.2128 18.8152 36.3629 18.9654 36.5631 18.9654H38.5902V9.55595C38.5902 9.55595 36.7383 9.55595 36.5631 9.55595C36.3629 9.55595 36.2128 9.73112 36.2128 9.9063ZM36.2128 15.9373C35.8374 16.4879 35.0867 16.9634 34.1858 16.9634C32.5842 16.9634 31.3579 15.9624 31.3579 14.2607C31.3579 12.559 32.5842 11.558 34.1858 11.558C35.0616 11.558 35.8624 12.0585 36.2128 12.584V15.9373ZM40.0917 9.55595H42.4941V18.9654H40.0917V9.55595ZM75.9775 9.3057C74.3259 9.3057 73.5501 10.3067 73.5501 10.3067V5.02642H71.1477V18.9654C71.1477 18.9654 72.9996 18.9654 73.1747 18.9654C73.3749 18.9654 73.5251 18.7902 73.5251 18.615V18.1896C73.5251 18.1896 74.3009 19.2156 75.9525 19.2156C78.6803 19.2156 80.8074 17.1135 80.8074 14.2607C80.8074 11.4078 78.6802 9.3057 75.9775 9.3057ZM75.5771 16.9383C74.6512 16.9383 73.9255 16.4629 73.5501 15.9123V12.559C73.9255 12.0585 74.7263 11.5329 75.5771 11.5329C77.1787 11.5329 78.405 12.5339 78.405 14.2356C78.405 15.9373 77.1787 16.9383 75.5771 16.9383ZM69.8965 13.3848V18.9904H67.4941V13.6601C67.4941 12.1085 66.9936 11.4829 65.6422 11.4829C64.9165 11.4829 64.1657 11.8583 63.6903 12.4088V18.9654H61.2879V9.55595H63.1898C63.39 9.55595 63.5401 9.73112 63.5401 9.9063V10.3067C64.2408 9.58097 65.1667 9.3057 66.0927 9.3057C67.1437 9.3057 68.0196 9.606 68.7203 10.2066C69.5711 10.9073 69.8965 11.8082 69.8965 13.3848ZM55.457 9.3057C53.8054 9.3057 53.0296 10.3067 53.0296 10.3067V5.02642H50.6272V18.9654C50.6272 18.9654 52.4791 18.9654 52.6542 18.9654C52.8544 18.9654 53.0046 18.7902 53.0046 18.615V18.1896C53.0046 18.1896 53.7803 19.2156 55.432 19.2156C58.1597 19.2156 60.2869 17.1135 60.2869 14.2607C60.3119 11.4078 58.1848 9.3057 55.457 9.3057ZM55.0566 16.9383C54.1307 16.9383 53.405 16.4629 53.0296 15.9123V12.559C53.405 12.0585 54.2058 11.5329 55.0566 11.5329C56.6582 11.5329 57.8845 12.5339 57.8845 14.2356C57.8845 15.9373 56.6582 16.9383 55.0566 16.9383ZM48.5501 9.3057C49.2758 9.3057 49.6512 9.43082 49.6512 9.43082V11.6581C49.6512 11.6581 47.6492 10.9824 46.398 12.4088V18.9904H43.9956V9.55595C43.9956 9.55595 45.8474 9.55595 46.0226 9.55595C46.2228 9.55595 46.3729 9.73112 46.3729 9.9063V10.3067C46.8234 9.78117 47.7994 9.3057 48.5501 9.3057ZM23.6002 18.1145C23.475 17.8142 23.3499 17.4889 23.2248 17.2136C23.0246 16.7632 22.8244 16.3377 22.6492 15.9373L22.6242 15.9123C20.8975 12.1586 19.0456 8.35475 17.0937 4.601L17.0186 4.45084C16.8184 4.07547 16.6182 3.67507 16.418 3.27467C16.1677 2.82422 15.9175 2.34874 15.5171 1.89829C14.7163 0.897291 13.5651 0.346741 12.3389 0.346741C11.0877 0.346741 9.96154 0.897291 9.13571 1.84824C8.76034 2.29869 8.48506 2.77417 8.23481 3.22462C8.03461 3.62502 7.83441 4.02542 7.63421 4.40079L7.55914 4.55094C5.63221 8.3047 3.75533 12.1085 2.02861 15.8623L2.00358 15.9123C1.82841 16.3127 1.62821 16.7381 1.42801 17.1886C1.30288 17.4639 1.17776 17.7642 1.05263 18.0895C0.727306 19.0154 0.627206 19.8913 0.752331 20.7922C1.02761 22.6691 2.27886 24.2456 4.00558 24.9463C4.65623 25.2216 5.33191 25.3467 6.03261 25.3467C6.23281 25.3467 6.48306 25.3217 6.68326 25.2967C7.50909 25.1966 8.35994 24.9213 9.18576 24.4458C10.2118 23.8703 11.1878 23.0444 12.2889 21.8432C13.39 23.0444 14.391 23.8703 15.392 24.4458C16.2178 24.9213 17.0686 25.1966 17.8945 25.2967C18.0947 25.3217 18.3449 25.3467 18.5451 25.3467C19.2458 25.3467 19.9465 25.2216 20.5721 24.9463C22.3239 24.2456 23.5501 22.644 23.8254 20.7922C24.0256 19.9163 23.9255 19.0404 23.6002 18.1145ZM12.3139 19.4158C10.9625 17.7141 10.0867 16.1125 9.78636 14.7612C9.66124 14.1856 9.63621 13.6851 9.71129 13.2346C9.76134 12.8342 9.91149 12.4839 10.1117 12.1836C10.5872 11.5079 11.388 11.0825 12.3139 11.0825C13.2398 11.0825 14.0656 11.4829 14.5161 12.1836C14.7163 12.4839 14.8664 12.8342 14.9165 13.2346C14.9916 13.6851 14.9665 14.2106 14.8414 14.7612C14.5411 16.0875 13.6652 17.6891 12.3139 19.4158ZM22.2989 20.592C22.1237 21.8933 21.2478 23.0194 20.0216 23.5199C19.421 23.7702 18.7703 23.8452 18.1197 23.7702C17.4941 23.6951 16.8684 23.4949 16.2178 23.1195C15.3169 22.619 14.416 21.8432 13.3649 20.6921C15.0166 18.6651 16.0176 16.8132 16.393 15.1616C16.5681 14.3858 16.5932 13.6851 16.5181 13.0344C16.418 12.4088 16.1928 11.8332 15.8424 11.3327C15.0666 10.2066 13.7653 9.55595 12.3139 9.55595C10.8624 9.55595 9.56114 10.2316 8.78536 11.3327C8.43501 11.8332 8.20979 12.4088 8.10969 13.0344C8.00959 13.6851 8.03461 14.4108 8.23481 15.1616C8.61019 16.8132 9.63621 18.6901 11.2628 20.7171C10.2368 21.8683 9.31089 22.644 8.40999 23.1445C7.75934 23.5199 7.13371 23.7201 6.50809 23.7952C5.83241 23.8703 5.18176 23.7702 4.60618 23.5449C3.37996 23.0444 2.50408 21.9183 2.32891 20.617C2.25383 19.9914 2.30388 19.3658 2.55413 18.6651C2.62921 18.4148 2.75433 18.1646 2.87946 17.8643C3.05463 17.4639 3.25483 17.0384 3.45503 16.613L3.48006 16.563C5.20678 12.8342 7.05864 9.03042 8.98556 5.32672L9.06064 5.17657C9.26084 4.8012 9.46104 4.40079 9.66124 4.02542C9.86144 3.62502 10.0867 3.24964 10.3619 2.92432C10.8875 2.32372 11.5882 1.99839 12.3639 1.99839C13.1397 1.99839 13.8404 2.32372 14.3659 2.92432C14.6412 3.24964 14.8664 3.62502 15.0666 4.02542C15.2668 4.40079 15.467 4.8012 15.6672 5.17657L15.7423 5.32672C17.6442 9.05545 19.4961 12.8593 21.2228 16.588V16.613C21.423 17.0134 21.5982 17.4639 21.7984 17.8643C21.9235 18.1646 22.0486 18.4148 22.1237 18.6651C22.3239 19.3157 22.399 19.9413 22.2989 20.592Z" fill="#FF5A5F"/>
</svg>
