<svg width="46" height="46" viewBox="0 0 46 46" fill="none" xmlns="http://www.w3.org/2000/svg">
<g clip-path="url(#clip0_62_3361)">
<path d="M1.33902 23.0007C1.39325 22.8267 1.41756 22.6452 1.47927 22.4731L6.52447 8.57868C7.18332 6.77579 8.37942 5.21864 9.95117 4.1176C11.5229 3.01655 13.3946 2.42466 15.3134 2.42188H31.0212C32.9402 2.42453 34.8122 3.01659 36.384 4.11803C37.9558 5.21946 39.1517 6.77716 39.8101 8.58055L44.859 22.4731C44.9207 22.6452 44.945 22.8267 44.9993 23.0007H1.33902ZM38.1271 26.7423V30.4839C38.1271 30.9801 37.9301 31.4559 37.5794 31.8068C37.2287 32.1576 36.7531 32.3547 36.2571 32.3547C35.7612 32.3547 35.2855 32.1576 34.9348 31.8068C34.5841 31.4559 34.3871 30.9801 34.3871 30.4839V26.7423H11.9474V30.4839C11.9474 30.9801 11.7504 31.4559 11.3997 31.8068C11.049 32.1576 10.5734 32.3547 10.0774 32.3547C9.58148 32.3547 9.10584 32.1576 8.75515 31.8068C8.40446 31.4559 8.20745 30.9801 8.20745 30.4839V26.7423H0.727539V30.4839C0.72993 32.3019 1.2618 34.0798 2.25811 35.6001C3.25443 37.1205 4.672 38.3175 6.33747 39.0447V41.7087C6.33747 42.701 6.7315 43.6527 7.43288 44.3544C8.13426 45.0561 9.08553 45.4503 10.0774 45.4503C11.0693 45.4503 12.0206 45.0561 12.722 44.3544C13.4234 43.6527 13.8174 42.701 13.8174 41.7087V39.8379H32.5172V41.7087C32.5172 42.701 32.9112 43.6527 33.6126 44.3544C34.3139 45.0561 35.2652 45.4503 36.2571 45.4503C37.249 45.4503 38.2003 45.0561 38.9017 44.3544C39.603 43.6527 39.9971 42.701 39.9971 41.7087V39.0447C41.6625 38.3175 43.0801 37.1205 44.0764 35.6001C45.0727 34.0798 45.6046 32.3019 45.607 30.4839V26.7423H38.1271Z" fill="#FB8E7B"/>
</g>
<defs>
<clipPath id="clip0_62_3361">
<rect width="44.8795" height="44.8992" fill="white" transform="translate(0.727539 0.55127)"/>
</clipPath>
</defs>
</svg>
