<svg width="68" height="67" viewBox="0 0 68 67" fill="none" xmlns="http://www.w3.org/2000/svg">
<circle cx="33.9648" cy="33.5" r="33.5" fill="#CACACA" fill-opacity="0.19"/>
<g clip-path="url(#clip0_30_51)">
<path d="M34.4645 15.6665L34.679 15.6793C35.0882 15.7276 35.4693 15.9123 35.7607 16.2037C36.052 16.4951 36.2368 16.8761 36.285 17.2853L36.2979 17.4998V24.8332L36.307 25.1082C36.3726 25.9812 36.7484 26.8019 37.3664 27.4219C37.9845 28.0419 38.8039 28.4204 39.6767 28.4888L39.9645 28.4998H47.2979L47.5124 28.5127C47.9216 28.5609 48.3026 28.7457 48.594 29.037C48.8854 29.3284 49.0701 29.7094 49.1184 30.1187L49.1312 30.3332V46.8332C49.1313 48.2361 48.5953 49.5859 47.6328 50.6066C46.6704 51.6273 45.3543 52.2417 43.9539 52.324L43.6312 52.3332H25.2979C23.895 52.3332 22.5451 51.7972 21.5244 50.8348C20.5037 49.8724 19.8893 48.5563 19.807 47.1558L19.7979 46.8332V21.1665C19.7978 19.7636 20.3338 18.4137 21.2962 17.393C22.2586 16.3723 23.5747 15.758 24.9752 15.6757L25.2979 15.6665H34.4645Z" fill="#FB8E7B"/>
<path d="M47.2981 24.8332H39.9647L39.9629 17.498L47.2981 24.8332Z" fill="#FB8E7B"/>
</g>
<defs>
<clipPath id="clip0_30_51">
<rect width="44" height="44" fill="white" transform="translate(12.4648 12)"/>
</clipPath>
</defs>
</svg>
