<svg width="68" height="67" viewBox="0 0 68 67" fill="none" xmlns="http://www.w3.org/2000/svg">
<circle cx="33.9648" cy="33.5" r="33.5" fill="#CACACA" fill-opacity="0.19"/>
<g clip-path="url(#clip0_30_52)">
<path d="M34.4833 15.687C35.9092 15.6871 37.2863 16.2065 38.3571 17.1482L38.6394 17.414L39.9191 18.6937C40.2703 19.0426 40.7289 19.2628 41.2208 19.3188L41.4683 19.3335H43.3016C44.7998 19.3334 46.2413 19.9066 47.3305 20.9354C48.4196 21.9642 49.0739 23.3707 49.1591 24.8665L49.1683 25.2002V27.0335C49.1683 27.5285 49.3369 28.0107 49.6413 28.3957L49.8063 28.579L51.0841 29.8587C52.1433 30.9118 52.7608 32.3293 52.8109 33.8221C52.861 35.3149 52.3398 36.7706 51.3536 37.8923L51.0878 38.1747L49.8081 39.4543C49.4592 39.8055 49.239 40.2641 49.1829 40.756L49.1683 41.0035V42.8368C49.1684 44.3351 48.5952 45.7766 47.5664 46.8657C46.5376 47.9549 45.1311 48.6091 43.6353 48.6943L43.3016 48.7035H41.4683C40.974 48.7037 40.4941 48.8703 40.1061 49.1765L39.9228 49.3415L38.6431 50.6193C37.59 51.6785 36.1725 52.2961 34.6797 52.3462C33.1869 52.3962 31.7312 51.875 30.6094 50.8888L30.3271 50.623L29.0474 49.3433C28.6963 48.9944 28.2376 48.7742 27.7458 48.7182L27.4983 48.7035H25.6649C24.1667 48.7036 22.7252 48.1305 21.6361 47.1017C20.5469 46.0728 19.8927 44.6663 19.8074 43.1705L19.7983 42.8368V41.0035C19.7981 40.5092 19.6315 40.0294 19.3253 39.6413L19.1603 39.458L17.8824 38.1783C16.8233 37.1252 16.2057 35.7077 16.1556 34.2149C16.1056 32.7221 16.6268 31.2664 17.6129 30.1447L17.8788 29.8623L19.1584 28.5827C19.5074 28.2315 19.7276 27.7729 19.7836 27.281L19.7983 27.0335V25.2002L19.8074 24.8665C19.8893 23.4282 20.4976 22.0702 21.5163 21.0515C22.535 20.0328 23.8929 19.4245 25.3313 19.3427L25.6649 19.3335H27.4983C27.9926 19.3333 28.4724 19.1667 28.8604 18.8605L29.0438 18.6955L30.3234 17.4177C30.8686 16.8693 31.5167 16.4341 32.2306 16.1371C32.9445 15.8401 33.7101 15.6871 34.4833 15.687ZM41.2611 29.0373C40.9173 28.6937 40.4511 28.5006 39.9649 28.5006C39.4788 28.5006 39.0126 28.6937 38.6688 29.0373L32.6316 35.0727L30.2611 32.704L30.0888 32.5518C29.7203 32.2669 29.2572 32.1329 28.7935 32.1771C28.3298 32.2213 27.9003 32.4403 27.5922 32.7897C27.2842 33.139 27.1206 33.5926 27.1349 34.0581C27.1491 34.5237 27.34 34.9664 27.6688 35.2963L31.3354 38.963L31.5078 39.1152C31.8605 39.3888 32.301 39.5243 32.7465 39.4963C33.1921 39.4683 33.6121 39.2787 33.9278 38.963L41.2611 31.6297L41.4133 31.4573C41.6869 31.1046 41.8224 30.6641 41.7944 30.2186C41.7664 29.7731 41.5768 29.353 41.2611 29.0373Z" fill="#FB8E7B"/>
</g>
<defs>
<clipPath id="clip0_30_52">
<rect width="44" height="44" fill="white" transform="translate(12.4648 12)"/>
</clipPath>
</defs>
</svg>
