<svg width="154" height="53" viewBox="0 0 154 53" fill="none" xmlns="http://www.w3.org/2000/svg">
<path d="M35.5313 1.11436L29.7286 9.07607C29.1403 9.88205 29.7777 11.0057 30.7719 10.9194C31.4543 10.8606 31.9916 10.8292 32.2407 10.8292C40.7691 10.8292 47.6817 17.8889 47.4386 26.4722C47.2032 34.7536 41.4908 34.6889 33.2036 34.6889H18.192C16.7742 34.6889 15.9015 33.1416 16.631 31.9278L20.3707 24.0916C20.6197 23.3817 19.6686 22.8816 19.2255 23.4895L0.266373 49.5122C-0.470968 50.7358 0.409528 52.2968 1.83911 52.2968H31.17C46.0404 52.2968 58.3555 40.266 58.1555 25.3956C57.9947 13.2471 49.627 3.04399 38.3571 0.0848239C37.2982 -0.19364 36.1765 0.229939 35.5313 1.11436Z" fill="#525270"/>
<path d="M65.1094 10.2115H73.4358C79.4307 10.2115 83.5409 13.8256 83.5409 19.3753C83.5409 24.925 79.4307 28.5391 73.4358 28.5391H65.1094V10.2115ZM73.226 25.0583C76.8657 25.0583 79.2483 22.8855 79.2483 19.3772C79.2483 15.869 76.8657 13.6962 73.226 13.6962H69.351V25.0583H73.226Z" fill="#7878A0"/>
<path d="M100.737 14.4531V28.5391H96.8346V26.9173C95.8129 28.1469 94.3206 28.7489 92.4361 28.7489C88.4572 28.7489 85.3921 25.9211 85.3921 21.4971C85.3921 17.073 88.4552 14.2433 92.4361 14.2433C94.1637 14.2433 95.6305 14.7943 96.6522 15.9454V14.4531H100.737ZM96.7307 21.4971C96.7307 19.0615 95.1599 17.5947 93.144 17.5947C91.1026 17.5947 89.5318 19.0615 89.5318 21.4971C89.5318 23.9307 91.1026 25.3975 93.144 25.3975C95.1599 25.3975 96.7307 23.9307 96.7307 21.4971Z" fill="#7878A0"/>
<path d="M104.5 23.8777V9.1113H108.585V23.6424C108.585 24.8465 109.214 25.5014 110.34 25.5014C110.785 25.5014 111.256 25.3701 111.491 25.2406L111.673 28.4077C110.967 28.643 110.26 28.7469 109.554 28.7469C106.385 28.7469 104.5 27.0193 104.5 23.8777Z" fill="#7878A0"/>
<path d="M124.055 24.115L126.228 26.4722C124.918 27.9645 122.955 28.7489 120.416 28.7489C115.546 28.7489 112.377 25.6858 112.377 21.4971C112.377 17.2809 115.572 14.2433 119.918 14.2433C123.896 14.2433 127.169 16.8612 127.197 21.3657L116.776 23.3816C117.378 24.77 118.688 25.476 120.52 25.476C122.012 25.476 123.087 25.0308 124.055 24.115ZM116.384 21.0774L123.243 19.742C122.851 18.3026 121.62 17.3338 119.918 17.3338C117.876 17.3338 116.462 18.6948 116.384 21.0774Z" fill="#7878A0"/>
<path d="M140.571 24.115L142.744 26.4722C141.434 27.9645 139.471 28.7489 136.931 28.7489C132.062 28.7489 128.893 25.6858 128.893 21.4971C128.893 17.2809 132.088 14.2433 136.433 14.2433C140.412 14.2433 143.685 16.8612 143.712 21.3657L133.292 23.3816C133.894 24.77 135.204 25.476 137.035 25.476C138.529 25.476 139.602 25.0308 140.571 24.115ZM132.901 21.0774L139.761 19.742C139.369 18.3026 138.137 17.3338 136.435 17.3338C134.392 17.3338 132.98 18.6948 132.901 21.0774Z" fill="#7878A0"/>
<path d="M146.456 23.8777V9.1113H150.541V23.6424C150.541 24.8465 151.168 25.5014 152.296 25.5014C152.741 25.5014 153.212 25.3701 153.447 25.2406L153.631 28.4077C152.925 28.643 152.218 28.7469 151.512 28.7469C148.343 28.7469 146.456 27.0193 146.456 23.8777Z" fill="#7878A0"/>
<path d="M137.233 32.4728H65.1094V47.3687H137.233V32.4728Z" fill="#FB8E7B"/>
<path d="M74.9868 41.5641C74.9868 42.0347 74.675 42.2798 74.1397 42.2798H72.9552V40.8208H74.122C74.6574 40.8208 74.9868 41.0934 74.9868 41.5641ZM74.828 38.9579C74.828 39.4089 74.5377 39.6442 74.0102 39.6442H72.9572V38.2617H74.0102C74.5358 38.2617 74.828 38.5069 74.828 38.9579ZM76.6145 41.7798C76.6145 41.0268 76.1144 40.3502 75.3437 40.1894C75.983 40.0011 76.4635 39.4834 76.4635 38.6833C76.4635 37.6381 75.6653 36.9714 74.3181 36.9714H71.3452V43.5761H74.422C75.8144 43.578 76.6145 42.8721 76.6145 41.7798ZM79.8717 40.915C79.8717 42.7407 81.066 43.6427 82.5995 43.6427C84.1232 43.6427 85.4037 42.7387 85.4037 40.915V36.9733H83.7937V40.9248C83.7937 41.7053 83.3898 42.1563 82.6269 42.1563C81.8641 42.1563 81.4797 41.7053 81.4797 40.9248V36.9733H79.8717V40.915ZM93.6812 41.6111C93.6812 39.4011 90.4161 39.9188 90.4161 38.7696C90.4161 38.3559 90.7083 38.1578 91.0926 38.1676C91.526 38.1774 91.826 38.4304 91.8555 38.854H93.5949C93.5302 37.593 92.5595 36.8792 91.1201 36.8792C89.7376 36.8792 88.712 37.5754 88.712 38.8265C88.6923 41.1699 91.9947 40.511 91.9947 41.7327C91.9947 42.119 91.6927 42.3544 91.224 42.3544C90.773 42.3544 90.4533 42.1092 90.4043 41.6013H88.6923C88.7394 42.9368 89.8493 43.6427 91.2691 43.6427C92.8163 43.6427 93.6812 42.7211 93.6812 41.6111ZM97.0247 43.578H98.6347V36.9733H97.0247V43.578ZM106.449 36.9733V41.066L103.759 36.9733H102.151V43.578H103.759V39.505L106.449 43.578H108.057V36.9733H106.449ZM115.621 36.9733H111.575V43.578H115.621V42.2896H113.183V40.8405H115.339V39.5991H113.183V38.2637H115.621V36.9733ZM123.814 41.6111C123.814 39.4011 120.549 39.9188 120.549 38.7696C120.549 38.3559 120.841 38.1578 121.228 38.1676C121.661 38.1774 121.961 38.4304 121.99 38.854H123.73C123.665 37.593 122.694 36.8792 121.255 36.8792C119.872 36.8792 118.847 37.5754 118.847 38.8265C118.827 41.1699 122.13 40.511 122.13 41.7327C122.13 42.119 121.83 42.3544 121.359 42.3544C120.908 42.3544 120.588 42.1092 120.541 41.6013H118.829C118.876 42.9368 119.986 43.6427 121.406 43.6427C122.949 43.6427 123.814 42.7211 123.814 41.6111ZM131.956 41.6111C131.956 39.4011 128.691 39.9188 128.691 38.7696C128.691 38.3559 128.981 38.1578 129.368 38.1676C129.801 38.1774 130.101 38.4304 130.131 38.854H131.872C131.805 37.593 130.836 36.8792 129.397 36.8792C128.015 36.8792 126.989 37.5754 126.989 38.8265C126.971 41.1699 130.272 40.511 130.272 41.7327C130.272 42.119 129.972 42.3544 129.501 42.3544C129.05 42.3544 128.73 42.1092 128.683 41.6013H126.971C127.018 42.9368 128.128 43.6427 129.548 43.6427C131.089 43.6427 131.956 42.7211 131.956 41.6111Z" fill="#F7F7F7"/>
</svg>
