<svg width="46" height="46" viewBox="0 0 46 46" fill="none" xmlns="http://www.w3.org/2000/svg">
<g clip-path="url(#clip0_67_631)">
<path d="M27.3881 40.1054C25.6584 41.8995 23.7435 43.4448 22.1391 44.616C21.0302 45.426 19.7062 45.8432 18.3599 45.8432C17.5969 45.8432 16.8284 45.7104 16.086 45.4372C11.2857 43.6824 3.09898 39.8173 2.20513 33.6643L0.33702 20.8156C-0.147304 17.4762 1.84048 14.2323 5.06432 13.1004C6.95861 12.4363 8.83981 11.8938 10.6892 11.4784L9.53357 19.4312C9.44381 20.0467 9.40454 20.6547 9.41202 21.2553C8.07499 21.461 7.10634 22.7594 6.74356 24.4618C6.62201 25.0305 7.10634 25.545 7.68042 25.4627L10.0721 25.1203C10.7117 27.0678 11.7719 28.9143 13.0753 30.6298C11.0333 31.655 9.57471 33.6063 8.92396 35.9092C8.68086 36.7717 9.66073 37.4601 10.405 36.9625C12.4919 35.5669 14.4254 34.7381 16.5067 34.4107C17.9672 35.7933 19.5136 37.0411 21.004 38.1318C22.7749 39.4282 24.8711 40.1148 27.0646 40.1148C27.1731 40.1148 27.2797 40.1129 27.3881 40.1092V40.1054ZM22.2793 13.7103L26.8944 14.3707C27.4685 14.453 27.9528 13.9385 27.8313 13.3698C27.4667 11.6599 26.4905 10.356 25.1404 10.1595C23.7884 9.96497 22.4888 10.9453 21.6585 12.4868C21.3836 12.9975 21.7052 13.628 22.2793 13.7103ZM45.0687 11.3456L43.1988 24.1943C42.3031 30.3473 34.12 34.2106 29.3198 35.9672C28.5849 36.2366 27.8219 36.3676 27.0627 36.3676C25.6958 36.3676 24.3457 35.9392 23.2106 35.1067C19.1004 32.0965 12.3367 26.1287 13.2324 19.9663L15.1005 7.11761C15.5848 3.78758 18.4104 1.22645 21.8193 1.02815C25.1086 0.841068 28.2707 0.949575 31.2197 1.36489C34.1687 1.78021 37.2373 2.53976 40.3396 3.62856C43.5653 4.7604 45.5531 8.00624 45.0687 11.3456ZM33.8769 20.5743C29.6489 21.5565 26.4419 21.1 22.6589 18.9766C21.853 18.5239 20.8937 19.3077 21.2172 20.1739C22.2588 22.9633 24.5009 25.1072 27.4405 25.5226C30.3801 25.9397 33.1383 24.5104 34.9204 22.1196C35.4702 21.3825 34.7727 20.3666 33.8769 20.5743ZM36.5585 14.6158C36.1938 12.9059 35.2177 11.6019 33.8676 11.4055C32.5156 11.2109 31.216 12.1912 30.3857 13.7328C30.1108 14.2435 30.4306 14.874 31.0046 14.9563L35.6198 15.6167C36.1938 15.699 36.68 15.1845 36.5585 14.6158Z" fill="#FB8E7B"/>
</g>
<defs>
<clipPath id="clip0_67_631">
<rect width="44.8795" height="44.8992" fill="white" transform="translate(0.26416 0.942383)"/>
</clipPath>
</defs>
</svg>
