<svg width="98" height="33" viewBox="0 0 98 33" fill="none" xmlns="http://www.w3.org/2000/svg">
<path d="M10.1899 4.34674H26.8566V12.6801H18.5233L10.1899 4.34674ZM10.1899 12.6801H18.5233L26.8566 21.0134H10.1899V12.6801ZM10.1899 21.0134H18.5233V29.3467L10.1899 21.0134Z" fill="black"/>
<path d="M36.2605 10.9209H42.9975V13.0617H38.8104V16.0368H42.9975V18.1303H38.8104V21.9395H36.2605V10.9209ZM44.3826 14.3523H46.7911V15.9422C46.9169 15.3958 47.1742 14.9765 47.5624 14.6829C47.9604 14.3783 48.4023 14.2265 48.8846 14.2265C49.1366 14.2265 49.3467 14.2479 49.5141 14.2894V16.5248C49.2739 16.4958 49.0321 16.4802 48.79 16.4775C48.1289 16.4775 47.631 16.6922 47.2947 17.1226C46.9596 17.5424 46.7911 18.1718 46.7911 19.0118V21.9395H44.3838V14.3523H44.3826ZM53.3161 22.1443C52.5817 22.1443 51.9412 21.9708 51.3956 21.6246C50.8603 21.2784 50.4348 20.787 50.1679 20.2078C49.8847 19.5997 49.7421 18.9115 49.7421 18.1459C49.7421 17.3903 49.89 16.7078 50.1836 16.0997C50.4589 15.5121 50.8958 15.0153 51.4429 14.6672C51.9984 14.3211 52.6336 14.1476 53.3477 14.1476C53.8826 14.1476 54.3607 14.2635 54.7801 14.4942C55.1995 14.7256 55.5144 15.0405 55.7245 15.4385V14.3523H58.117V21.9395H55.7245V20.8689C55.5144 21.2468 55.1892 21.556 54.7485 21.7977C54.3077 22.0314 53.8151 22.1504 53.3161 22.1443ZM54.0088 20.1449C54.5857 20.1449 55.0317 19.9562 55.3467 19.5783C55.6616 19.2005 55.8191 18.7228 55.8191 18.1459C55.8191 17.5794 55.6616 17.107 55.3467 16.7291C55.0317 16.3513 54.5857 16.1626 54.0088 16.1626C53.4625 16.1626 53.0225 16.346 52.6866 16.7135C52.3614 17.081 52.1986 17.558 52.1986 18.1459C52.1986 18.7338 52.3614 19.2161 52.6866 19.594C53.0225 19.9615 53.4632 20.1449 54.0088 20.1449ZM59.8014 14.3523H62.2098V15.4542C62.3784 15.0653 62.6506 14.7504 63.028 14.5098C63.4169 14.2692 63.868 14.1476 64.3819 14.1476C65.5783 14.1476 66.371 14.6143 66.7587 15.5487C66.9722 15.1252 67.3062 14.7748 67.7191 14.5414C68.1606 14.2757 68.6677 14.1396 69.1828 14.1476C70.9774 14.1476 71.8746 15.1755 71.8746 17.2328V21.9395H69.4505V17.6735C69.4505 17.16 69.3559 16.7821 69.1672 16.5404C68.9781 16.2994 68.6948 16.1782 68.317 16.1782C67.9079 16.1782 67.5929 16.32 67.3726 16.6033C67.1522 16.8763 67.042 17.3533 67.042 18.0357V21.9395H64.6179V17.6579C64.6179 17.144 64.5237 16.7711 64.3346 16.5404C64.157 16.2994 63.8783 16.1782 63.5012 16.1782C63.081 16.1782 62.7608 16.32 62.5404 16.6033C62.32 16.8763 62.2098 17.3533 62.2098 18.0357V21.9395H59.8022V14.3523H59.8014ZM80.922 17.7525C80.922 18.0773 80.9007 18.4292 80.8579 18.807H75.2552C75.2766 19.3004 75.444 19.6775 75.7589 19.9405C76.0738 20.2025 76.4997 20.334 77.0339 20.334C77.7792 20.334 78.2516 20.1079 78.4506 19.6569H80.8118C80.6959 20.4023 80.2868 21.005 79.5838 21.4671C78.8914 21.9182 78.0412 22.1443 77.0339 22.1443C75.733 22.1443 74.7097 21.7923 73.9643 21.0893C73.23 20.3859 72.8624 19.4052 72.8624 18.1459C72.8624 17.3273 73.0302 16.619 73.3661 16.0207C73.6905 15.4233 74.1908 14.9399 74.7985 14.6356C75.418 14.3108 76.1367 14.1476 76.9561 14.1476C77.7319 14.1476 78.419 14.2997 79.0172 14.6043C79.6257 14.909 80.0931 15.3337 80.418 15.8793C80.7542 16.4256 80.922 17.0498 80.922 17.7525ZM78.544 17.3117C78.5338 16.8081 78.3923 16.4245 78.1189 16.1626C77.8467 15.9006 77.4525 15.7691 76.9385 15.7691C76.4246 15.7691 76.0155 15.9106 75.7109 16.1942C75.4173 16.4672 75.2652 16.8393 75.2541 17.3117H78.544ZM81.9838 14.3523H84.3923V15.9422C84.5181 15.3958 84.7755 14.9765 85.1636 14.6829C85.5403 14.3863 86.0062 14.2254 86.4858 14.2265C86.7374 14.2265 86.9479 14.2479 87.1153 14.2894V16.5248C86.8751 16.4958 86.6334 16.4802 86.3913 16.4775C85.7301 16.4775 85.2322 16.6922 84.8959 17.1226C84.5597 17.5424 84.3923 18.1718 84.3923 19.0118V21.9395H81.9838V14.3523Z" fill="black"/>
</svg>
