<svg width="45" height="46" viewBox="0 0 45 46" fill="none" xmlns="http://www.w3.org/2000/svg">
<g clip-path="url(#clip0_62_3373)">
<path d="M35.6424 11.7762H24.4225V6.16377C24.4225 5.6676 24.2255 5.19176 23.8748 4.84091C23.5241 4.49007 23.0485 4.29297 22.5525 4.29297C22.0566 4.29297 21.5809 4.49007 21.2302 4.84091C20.8796 5.19176 20.6825 5.6676 20.6825 6.16377V11.7762H9.46268C6.98385 11.7791 4.60739 12.7656 2.85459 14.5192C1.10179 16.2728 0.115762 18.6503 0.112793 21.1302L0.112793 28.6134C0.115762 31.0933 1.10179 33.4708 2.85459 35.2244C4.60739 36.978 6.98385 37.9644 9.46268 37.9674H35.6424C38.1212 37.9644 40.4977 36.978 42.2505 35.2244C44.0033 33.4708 44.9893 31.0933 44.9922 28.6134V21.1302C44.9893 18.6503 44.0033 16.2728 42.2505 14.5192C40.4977 12.7656 38.1212 11.7791 35.6424 11.7762ZM18.8126 19.2594H20.6825C21.1785 19.2594 21.6541 19.4565 22.0048 19.8073C22.3555 20.1582 22.5525 20.634 22.5525 21.1302C22.5525 21.6263 22.3555 22.1022 22.0048 22.453C21.6541 22.8039 21.1785 23.001 20.6825 23.001H18.8126C18.3166 23.001 17.841 22.8039 17.4903 22.453C17.1396 22.1022 16.9426 21.6263 16.9426 21.1302C16.9426 20.634 17.1396 20.1582 17.4903 19.8073C17.841 19.4565 18.3166 19.2594 18.8126 19.2594ZM9.46268 30.4842C9.09283 30.4842 8.73129 30.3745 8.42378 30.1689C8.11626 29.9633 7.87658 29.6712 7.73505 29.3293C7.59351 28.9875 7.55648 28.6113 7.62863 28.2484C7.70079 27.8855 7.87889 27.5522 8.14041 27.2905C8.40193 27.0289 8.73513 26.8507 9.09787 26.7785C9.46061 26.7063 9.8366 26.7434 10.1783 26.885C10.52 27.0266 10.812 27.2664 11.0175 27.574C11.223 27.8817 11.3327 28.2434 11.3327 28.6134C11.3327 29.1096 11.1356 29.5854 10.785 29.9362C10.4343 30.2871 9.95863 30.4842 9.46268 30.4842ZM11.3327 23.001H9.46268C8.96673 23.001 8.4911 22.8039 8.14041 22.453C7.78972 22.1022 7.5927 21.6263 7.5927 21.1302C7.5927 20.634 7.78972 20.1582 8.14041 19.8073C8.4911 19.4565 8.96673 19.2594 9.46268 19.2594H11.3327C11.8286 19.2594 12.3042 19.4565 12.6549 19.8073C13.0056 20.1582 13.2026 20.634 13.2026 21.1302C13.2026 21.6263 13.0056 22.1022 12.6549 22.453C12.3042 22.8039 11.8286 23.001 11.3327 23.001ZM28.1625 30.4842H16.9426C16.4466 30.4842 15.971 30.2871 15.6203 29.9362C15.2696 29.5854 15.0726 29.1096 15.0726 28.6134C15.0726 28.1172 15.2696 27.6414 15.6203 27.2905C15.971 26.9397 16.4466 26.7426 16.9426 26.7426H28.1625C28.6584 26.7426 29.134 26.9397 29.4847 27.2905C29.8354 27.6414 30.0324 28.1172 30.0324 28.6134C30.0324 29.1096 29.8354 29.5854 29.4847 29.9362C29.134 30.2871 28.6584 30.4842 28.1625 30.4842ZM35.6424 30.4842C35.2725 30.4842 34.911 30.3745 34.6035 30.1689C34.2959 29.9633 34.0563 29.6712 33.9147 29.3293C33.7732 28.9875 33.7362 28.6113 33.8083 28.2484C33.8805 27.8855 34.0586 27.5522 34.3201 27.2905C34.5816 27.0289 34.9148 26.8507 35.2775 26.7785C35.6403 26.7063 36.0163 26.7434 36.358 26.885C36.6997 27.0266 36.9917 27.2664 37.1972 27.574C37.4027 27.8817 37.5123 28.2434 37.5123 28.6134C37.5123 29.1096 37.3153 29.5854 36.9646 29.9362C36.6139 30.2871 36.1383 30.4842 35.6424 30.4842ZM35.6424 23.001H28.1625C27.6665 23.001 27.1909 22.8039 26.8402 22.453C26.4895 22.1022 26.2925 21.6263 26.2925 21.1302C26.2925 20.634 26.4895 20.1582 26.8402 19.8073C27.1909 19.4565 27.6665 19.2594 28.1625 19.2594H35.6424C36.1383 19.2594 36.6139 19.4565 36.9646 19.8073C37.3153 20.1582 37.5123 20.634 37.5123 21.1302C37.5123 21.6263 37.3153 22.1022 36.9646 22.453C36.6139 22.8039 36.1383 23.001 35.6424 23.001Z" fill="#FB8E7B"/>
</g>
<defs>
<clipPath id="clip0_62_3373">
<rect width="44.8795" height="44.8992" fill="white" transform="translate(0.112793 0.55127)"/>
</clipPath>
</defs>
</svg>
