<svg width="46" height="46" viewBox="0 0 46 46" fill="none" xmlns="http://www.w3.org/2000/svg">
<g clip-path="url(#clip0_62_3319)">
<path d="M36.1385 10.2266H30.5285V8.35581C30.5285 6.86731 29.9375 5.43977 28.8854 4.38724C27.8333 3.33471 26.4064 2.74341 24.9186 2.74341H21.1786C19.6908 2.74341 18.2639 3.33471 17.2118 4.38724C16.1597 5.43977 15.5687 6.86731 15.5687 8.35581V10.2266H9.95877C7.47994 10.2296 5.10349 11.216 3.35068 12.9696C1.59788 14.7232 0.611856 17.1007 0.608887 19.5806L0.608887 34.547C0.611856 37.027 1.59788 39.4045 3.35068 41.158C5.10349 42.9116 7.47994 43.8981 9.95877 43.901H36.1385C38.6173 43.8981 40.9937 42.9116 42.7465 41.158C44.4993 39.4045 45.4854 37.027 45.4883 34.547V19.5806C45.4854 17.1007 44.4993 14.7232 42.7465 12.9696C40.9937 11.216 38.6173 10.2296 36.1385 10.2266ZM19.3087 8.35581C19.3087 7.85965 19.5057 7.3838 19.8564 7.03296C20.2071 6.68211 20.6827 6.48501 21.1786 6.48501H24.9186C25.4145 6.48501 25.8902 6.68211 26.2409 7.03296C26.5916 7.3838 26.7886 7.85965 26.7886 8.35581V10.2266H19.3087V8.35581ZM28.6585 28.9346H24.9186V32.6762C24.9186 33.1724 24.7216 33.6483 24.3709 33.9991C24.0202 34.3499 23.5446 34.547 23.0486 34.547C22.5527 34.547 22.077 34.3499 21.7263 33.9991C21.3757 33.6483 21.1786 33.1724 21.1786 32.6762V28.9346H17.4387C16.9427 28.9346 16.4671 28.7375 16.1164 28.3867C15.7657 28.0358 15.5687 27.56 15.5687 27.0638C15.5687 26.5677 15.7657 26.0918 16.1164 25.741C16.4671 25.3901 16.9427 25.193 17.4387 25.193H21.1786V21.4514C21.1786 20.9553 21.3757 20.4794 21.7263 20.1286C22.077 19.7777 22.5527 19.5806 23.0486 19.5806C23.5446 19.5806 24.0202 19.7777 24.3709 20.1286C24.7216 20.4794 24.9186 20.9553 24.9186 21.4514V25.193H28.6585C29.1545 25.193 29.6301 25.3901 29.9808 25.741C30.3315 26.0918 30.5285 26.5677 30.5285 27.0638C30.5285 27.56 30.3315 28.0358 29.9808 28.3867C29.6301 28.7375 29.1545 28.9346 28.6585 28.9346Z" fill="#FB8E7B"/>
</g>
<defs>
<clipPath id="clip0_62_3319">
<rect width="44.8795" height="44.8992" fill="white" transform="translate(0.608887 0.872559)"/>
</clipPath>
</defs>
</svg>
