<svg width="68" height="67" viewBox="0 0 68 67" fill="none" xmlns="http://www.w3.org/2000/svg">
<circle cx="33.9648" cy="33.5" r="33.5" fill="#CACACA" fill-opacity="0.19"/>
<g clip-path="url(#clip0_30_50)">
<path d="M48.2079 37.6357L51.8123 43.8801C51.9606 44.1372 52.0443 44.4264 52.0563 44.723C52.0683 45.0196 52.0082 45.3146 51.8811 45.5829C51.754 45.8511 51.5638 46.0845 51.3266 46.2631C51.0895 46.4416 50.8127 46.56 50.5198 46.6081L50.3126 46.6282L50.1073 46.6264L44.7301 46.2781L42.3413 51.1107C42.2116 51.3724 42.0213 51.5994 41.7863 51.7727C41.5512 51.9461 41.2782 52.0608 40.9899 52.1075C40.7016 52.1541 40.4063 52.1312 40.1286 52.0408C39.8509 51.9503 39.5988 51.7949 39.3933 51.5874L39.2429 51.4151L39.1109 51.2134L35.5029 44.9672C38.0428 44.8085 40.5114 44.064 42.7156 42.7921C44.9197 41.5202 46.7996 39.7553 48.2079 37.6357Z" fill="#FB8E7B"/>
<path d="M33.42 44.9671L29.8156 51.2151C29.6696 51.4682 29.4652 51.6828 29.2195 51.841C28.9737 51.9992 28.6938 52.0964 28.4029 52.1246C28.112 52.1527 27.8186 52.111 27.5471 52.0029C27.2756 51.8948 27.0338 51.7234 26.842 51.503L26.7026 51.3196L26.5853 51.1106L24.1946 46.2798L18.8211 46.6281C18.5251 46.6472 18.2289 46.5942 17.9579 46.4737C17.6869 46.3532 17.4491 46.1688 17.2649 45.9363C17.0807 45.7039 16.9556 45.4302 16.9003 45.1388C16.845 44.8474 16.8612 44.5469 16.9475 44.2631L17.0208 44.067L17.1125 43.8836L20.7205 37.6338C22.1279 39.7533 24.0067 41.5184 26.2098 42.791C28.413 44.0635 30.8807 44.8071 33.42 44.9671Z" fill="#FB8E7B"/>
<path d="M34.4652 15.6665L34.9052 15.6738C38.2307 15.7879 41.3819 17.1892 43.694 19.5821C46.0062 21.975 47.2986 25.1724 47.2985 28.4998L47.293 28.8537L47.2802 29.2057L47.2472 29.6548L47.1995 30.0985L47.1555 30.4248C47.0349 31.2162 46.8403 31.9945 46.5743 32.7495L46.3617 33.3142L46.0812 33.9522C45.0433 36.1631 43.3961 38.0321 41.333 39.3395C39.2699 40.6469 36.8766 41.3386 34.4342 41.3332C31.9917 41.3278 29.6015 40.6256 27.5442 39.3091C25.4869 37.9926 23.848 36.1164 22.8198 33.9008L22.5815 33.3563L22.4862 33.1125L22.3395 32.7147L22.1653 32.1757C22.1031 31.9669 22.0463 31.7566 21.9948 31.545L21.8848 31.0482L21.795 30.5513L21.7583 30.2965L21.6868 29.7043L21.6428 29.0352L21.6318 28.4998C21.6318 25.1724 22.9241 21.975 25.2363 19.5821C27.5485 17.1892 30.6997 15.7879 34.0252 15.6738L34.4652 15.6665Z" fill="#FB8E7B"/>
</g>
<defs>
<clipPath id="clip0_30_50">
<rect width="44" height="44" fill="white" transform="translate(12.4648 12)"/>
</clipPath>
</defs>
</svg>
