<svg width="46" height="46" viewBox="0 0 46 46" fill="none" xmlns="http://www.w3.org/2000/svg">
<g clip-path="url(#clip0_62_3385)">
<path d="M0.764648 36.3003H10.1145V45.6502H6.37458C3.27603 45.6502 0.764648 43.1388 0.764648 40.0402V36.3003ZM10.1145 10.1206V0.770709H6.37458C3.27603 0.770709 0.764648 3.28209 0.764648 6.38064V10.1206H10.1145ZM23.2044 10.1206V6.38064C23.2044 3.28209 20.693 0.770709 17.5944 0.770709H13.8545V10.1206H23.2044ZM0.764648 13.8606V32.5603H10.1145V13.8606H0.764648ZM13.8545 13.8606V32.5603H23.2044V13.8606H13.8545ZM13.8545 45.6502H17.5944C20.693 45.6502 23.2044 43.1388 23.2044 40.0402V36.3003H13.8545V45.6502ZM25.8672 14.7544L32.6721 35.2194L42.7924 31.8628L35.9875 11.3978L25.8672 14.7544ZM33.852 38.7668L35.3331 43.0902C35.9838 45.0499 38.1006 46.1102 40.0604 45.4594L43.0804 44.459C45.042 43.8082 46.1041 41.6896 45.4515 39.7298L43.9724 35.412L33.852 38.7668ZM24.6873 11.2052L34.8076 7.84857L33.306 3.33258C32.6552 1.37284 30.5384 0.310695 28.5787 0.961447L25.5587 1.96188C23.5989 2.61264 22.5368 4.72945 23.1875 6.68919L24.6873 11.2052Z" fill="#FB8E7B"/>
</g>
<defs>
<clipPath id="clip0_62_3385">
<rect width="44.8795" height="44.8795" fill="white" transform="translate(0.764648 0.770752)"/>
</clipPath>
</defs>
</svg>
