<svg width="121" height="42" viewBox="0 0 121 42" fill="none" xmlns="http://www.w3.org/2000/svg">
<path d="M27.947 0.876492L23.3829 7.13875C22.9202 7.77269 23.4215 8.6565 24.2035 8.58863C24.7403 8.54236 25.1629 8.51768 25.3588 8.51768C32.0668 8.51768 37.5039 14.0704 37.3126 20.8216C37.1275 27.3353 32.6344 27.2844 26.1161 27.2844H14.3088C13.1937 27.2844 12.5073 26.0674 13.0811 25.1127L16.0225 18.9491C16.2184 18.3908 15.4703 17.9974 15.1217 18.4756L0.209515 38.9436C-0.370438 39.9061 0.322112 41.1338 1.44654 41.1338H24.5166C36.2129 41.1338 45.8993 31.6711 45.742 19.9748C45.6155 10.4195 39.034 2.39424 30.1696 0.0667179C29.3367 -0.152307 28.4544 0.180858 27.947 0.876492Z" fill="white"/>
<path d="M51.2114 8.03174H57.7606C62.4758 8.03174 65.7087 10.8744 65.7087 15.2395C65.7087 19.6046 62.4758 22.4473 57.7606 22.4473H51.2114V8.03174ZM57.5955 19.7095C60.4583 19.7095 62.3323 18.0004 62.3323 15.241C62.3323 12.4816 60.4583 10.7726 57.5955 10.7726H54.5477V19.7095H57.5955Z" fill="white"/>
<path d="M79.234 11.3677V22.4469H76.1646V21.1713C75.361 22.1384 74.1872 22.612 72.705 22.612C69.5754 22.612 67.1646 20.3878 67.1646 16.9081C67.1646 13.4284 69.5738 11.2026 72.705 11.2026C74.0638 11.2026 75.2176 11.6361 76.0212 12.5415V11.3677H79.234ZM76.0829 16.9081C76.0829 14.9924 74.8474 13.8386 73.2618 13.8386C71.6561 13.8386 70.4206 14.9924 70.4206 16.9081C70.4206 18.8222 71.6561 19.976 73.2618 19.976C74.8474 19.976 76.0829 18.8222 76.0829 16.9081Z" fill="white"/>
<path d="M82.1943 18.781V7.1665H85.4072V18.5959C85.4072 19.5429 85.9023 20.0581 86.7877 20.0581C87.1378 20.0581 87.508 19.9548 87.6931 19.853L87.8365 22.344C87.2813 22.5291 86.7244 22.6108 86.1692 22.6108C83.6766 22.6108 82.1943 21.252 82.1943 18.781Z" fill="white"/>
<path d="M97.5753 18.9672L99.2843 20.8212C98.254 21.995 96.71 22.612 94.7126 22.612C90.8827 22.612 88.3901 20.2027 88.3901 16.9081C88.3901 13.5919 90.9028 11.2026 94.3208 11.2026C97.4504 11.2026 100.025 13.2618 100.046 16.8047L91.8498 18.3903C92.3233 19.4824 93.3537 20.0377 94.7943 20.0377C95.9681 20.0377 96.8133 19.6875 97.5753 18.9672ZM91.5413 16.578L96.9367 15.5276C96.6282 14.3955 95.6596 13.6335 94.3208 13.6335C92.7151 13.6335 91.603 14.7039 91.5413 16.578Z" fill="white"/>
<path d="M110.566 18.9672L112.275 20.8212C111.244 21.995 109.7 22.612 107.703 22.612C103.873 22.612 101.38 20.2027 101.38 16.9081C101.38 13.5919 103.893 11.2026 107.311 11.2026C110.441 11.2026 113.015 13.2618 113.036 16.8047L104.84 18.3903C105.314 19.4824 106.344 20.0377 107.785 20.0377C108.96 20.0377 109.804 19.6875 110.566 18.9672ZM104.533 16.578L109.929 15.5276C109.62 14.3955 108.651 13.6335 107.313 13.6335C105.705 13.6335 104.595 14.7039 104.533 16.578Z" fill="white"/>
<path d="M115.194 18.781V7.1665H118.407V18.5959C118.407 19.5429 118.901 20.0581 119.788 20.0581C120.138 20.0581 120.508 19.9548 120.693 19.853L120.838 22.344C120.283 22.5291 119.726 22.6108 119.171 22.6108C116.678 22.6108 115.194 21.252 115.194 18.781Z" fill="white"/>
<path d="M107.94 25.5415H51.2114V37.2578H107.94V25.5415Z" fill="#FB8E7B"/>
<path d="M58.9805 32.6917C58.9805 33.0619 58.7353 33.2547 58.3142 33.2547H57.3825V32.1071H58.3003C58.7214 32.1071 58.9805 32.3215 58.9805 32.6917ZM58.8556 30.6418C58.8556 30.9966 58.6273 31.1817 58.2124 31.1817H57.3841V30.0942H58.2124C58.6257 30.0942 58.8556 30.2871 58.8556 30.6418ZM60.2607 32.8614C60.2607 32.2691 59.8674 31.7369 59.2612 31.6105C59.764 31.4624 60.1419 31.0552 60.1419 30.4259C60.1419 29.6038 59.5142 29.0793 58.4545 29.0793H56.1162V34.2742H58.5363C59.6314 34.2758 60.2607 33.7205 60.2607 32.8614ZM62.8227 32.1812C62.8227 33.6172 63.762 34.3267 64.9682 34.3267C66.1667 34.3267 67.1739 33.6156 67.1739 32.1812V29.0809H65.9075V32.1889C65.9075 32.8028 65.5898 33.1575 64.9898 33.1575C64.3898 33.1575 64.0875 32.8028 64.0875 32.1889V29.0809H62.8227V32.1812ZM73.6845 32.7287C73.6845 30.9904 71.1163 31.3976 71.1163 30.4937C71.1163 30.1683 71.3461 30.0125 71.6485 30.0202C71.9893 30.0279 72.2253 30.2269 72.2485 30.5601H73.6166C73.5657 29.5683 72.8022 29.0068 71.67 29.0068C70.5826 29.0068 69.7759 29.5544 69.7759 30.5385C69.7605 32.3817 72.358 31.8634 72.358 32.8243C72.358 33.1282 72.1204 33.3133 71.7518 33.3133C71.397 33.3133 71.1456 33.1205 71.1071 32.721H69.7605C69.7975 33.7714 70.6706 34.3267 71.7873 34.3267C73.0042 34.3267 73.6845 33.6017 73.6845 32.7287ZM76.3143 34.2758H77.5806V29.0809H76.3143V34.2758ZM83.7272 29.0809V32.2999L81.611 29.0809H80.3462V34.2758H81.611V31.0721L83.7272 34.2758H84.992V29.0809H83.7272ZM90.9411 29.0809H87.7591V34.2758H90.9411V33.2624H89.0239V32.1225H90.719V31.1462H89.0239V30.0958H90.9411V29.0809ZM97.3854 32.7287C97.3854 30.9904 94.8173 31.3976 94.8173 30.4937C94.8173 30.1683 95.0471 30.0125 95.3509 30.0202C95.6918 30.0279 95.9278 30.2269 95.9509 30.5601H97.3191C97.2682 29.5683 96.5047 29.0068 95.3725 29.0068C94.2851 29.0068 93.4784 29.5544 93.4784 30.5385C93.463 32.3817 96.0605 31.8634 96.0605 32.8243C96.0605 33.1282 95.8245 33.3133 95.4543 33.3133C95.0995 33.3133 94.8481 33.1205 94.8111 32.721H93.4645C93.5016 33.7714 94.3746 34.3267 95.4913 34.3267C96.7052 34.3267 97.3854 33.6017 97.3854 32.7287ZM103.79 32.7287C103.79 30.9904 101.221 31.3976 101.221 30.4937C101.221 30.1683 101.45 30.0125 101.754 30.0202C102.094 30.0279 102.33 30.2269 102.354 30.5601H103.723C103.671 29.5683 102.909 29.0068 101.777 29.0068C100.689 29.0068 99.8826 29.5544 99.8826 30.5385C99.8687 32.3817 102.465 31.8634 102.465 32.8243C102.465 33.1282 102.229 33.3133 101.858 33.3133C101.504 33.3133 101.252 33.1205 101.215 32.721H99.8687C99.9057 33.7714 100.779 34.3267 101.895 34.3267C103.108 34.3267 103.79 33.6017 103.79 32.7287Z" fill="#F7F7F7"/>
</svg>
