<svg width="113" height="31" viewBox="0 0 113 31" fill="none" xmlns="http://www.w3.org/2000/svg">
<path fill-rule="evenodd" clip-rule="evenodd" d="M51.5382 19.3942C50.7592 19.5739 50.3562 19.3342 50.3562 18.8182C50.3562 18.1112 51.0872 17.8282 52.1315 17.8282C52.5909 17.8282 53.0242 17.8679 53.0242 17.8679C53.0242 18.1705 52.3665 19.2032 51.5382 19.3942ZM52.3309 12.3159C49.8372 12.3159 48.0469 13.2329 48.0469 13.2329V15.9285C48.0469 15.9285 50.0236 14.7922 51.6272 14.7922C52.9065 14.7922 53.0639 15.4825 53.0059 16.0552C53.0059 16.0552 52.6366 15.9575 51.5106 15.9575C48.8562 15.9575 47.5169 17.1639 47.5169 19.0979C47.5169 20.9325 49.0222 21.6992 50.2909 21.6992C52.1416 21.6992 52.9555 20.4552 53.2052 19.8652C53.3789 19.4559 53.4109 19.1799 53.5662 19.1799C53.7445 19.1799 53.6845 19.3778 53.6755 19.7852C53.6609 20.4988 53.6949 21.0382 53.8079 21.4928H56.2622V17.0782C56.2622 14.3219 55.2869 12.3159 52.3309 12.3159Z" fill="#100F0D"/>
<path fill-rule="evenodd" clip-rule="evenodd" d="M68.4844 17.012C68.4844 16.2057 69.2341 15.4713 70.6101 15.4713C72.1091 15.4713 73.3154 16.1933 73.5857 16.3573V13.2367C73.5857 13.2367 72.6331 12.3194 70.2914 12.3194C67.8231 12.3194 65.7674 13.7637 65.7674 16.8727C65.7674 19.9813 67.6331 21.7053 70.2847 21.7053C72.3564 21.7053 73.591 20.567 73.591 20.567V17.6033C73.2004 17.8217 72.1121 18.5773 70.6251 18.5773C69.0507 18.5773 68.4844 17.8527 68.4844 17.012ZM35.6813 12.5237C35.6816 12.5257 35.8379 13.1964 35.6319 14.0734C35.5269 14.5194 35.3339 14.8987 35.5669 14.8987C35.7276 14.8987 35.7279 14.7654 35.9369 14.2874C36.2426 13.5887 36.8869 12.317 38.3926 12.317C39.8239 12.317 40.4982 13.1867 40.7216 14.001C40.8916 14.6197 40.7429 14.8987 40.9502 14.8987C41.0976 14.8987 41.1486 14.5777 41.3299 14.1717C41.6556 13.4444 42.3639 12.317 43.7965 12.317C45.9582 12.317 46.7835 13.878 46.7835 16.2197V21.496H43.5722V16.6317C43.5722 15.8207 43.4412 15.034 42.7019 15.034C42.0169 15.034 41.6976 16.248 41.6976 17.0317V21.498H38.4272V16.632C38.4272 15.5943 38.2809 15.0344 37.5516 15.0344C36.9202 15.0344 36.5519 16.1513 36.5519 17.032V21.4963H33.2946V12.5237H35.6813ZM57.3311 12.536C57.3325 12.5367 57.8868 12.8564 58.9628 12.8564C60.0408 12.8564 60.5881 12.536 60.5881 12.536V21.4983H57.3311V12.536ZM84.2207 12.536C84.222 12.5367 84.7763 12.8564 85.8527 12.8564C86.9303 12.8564 87.478 12.536 87.478 12.536V21.4983H84.2207V12.536ZM64.8994 9.80738V21.4983H61.6421V9.80738H64.8994ZM77.4567 9.80738C77.457 9.80838 77.5917 10.1444 77.5917 11.1437C77.5917 12.6194 77.2707 13.8204 77.119 14.278C77.0387 14.5204 76.8954 14.8944 77.101 14.901C77.2197 14.9047 77.291 14.726 77.4364 14.416C77.581 14.1057 78.2984 12.319 80.1837 12.319C82.7807 12.319 83.1627 14.4457 83.1627 16.7487V21.498H79.9054V16.5537C79.9054 15.5397 79.6927 15.036 79.013 15.036C78.1924 15.036 77.9024 16.3067 77.9024 17.034V21.498H74.6451V9.80705L77.4567 9.80738ZM90.965 12.5237C90.9653 12.5257 91.1216 13.1964 90.9156 14.0734C90.8106 14.5194 90.6176 14.8987 90.8506 14.8987C91.0113 14.8987 91.0116 14.7654 91.2206 14.2874C91.526 13.5887 92.1706 12.317 93.6763 12.317C95.1729 12.317 95.7666 13.1907 96.0053 14.001C96.1653 14.544 96.0266 14.8987 96.2339 14.8987C96.3813 14.8987 96.4323 14.5777 96.6136 14.1717C96.9386 13.4444 97.6476 12.317 99.0803 12.317C101.242 12.317 102.067 13.878 102.067 16.2197V21.496H98.8559V16.6317C98.8559 15.8207 98.7249 15.034 97.9856 15.034C97.3006 15.034 96.9809 16.248 96.9809 17.0317V21.498H93.7106V16.632C93.7106 15.5943 93.5649 15.0344 92.8353 15.0344C92.2039 15.0344 91.8356 16.1513 91.8356 17.032V21.4963H88.5783V12.5237H90.965ZM58.9498 9.71671C57.8491 9.71671 56.9561 10.2994 56.9561 11.018C56.9561 11.7367 57.8488 12.3194 58.9498 12.3194C60.0511 12.3194 60.9438 11.7367 60.9438 11.018C60.9438 10.2994 60.0515 9.71671 58.9498 9.71671ZM85.8397 9.71671C84.7387 9.71671 83.8457 10.2994 83.8457 11.018C83.8457 11.7367 84.7383 12.3194 85.8397 12.3194C86.9406 12.3194 87.8336 11.7367 87.8336 11.018C87.8336 10.2994 86.941 9.71671 85.8397 9.71671Z" fill="#100F0D"/>
<path fill-rule="evenodd" clip-rule="evenodd" d="M107.616 19.5649C106.869 19.5649 106.32 18.6179 106.32 17.2982C106.32 16.0165 106.884 15.0322 107.59 15.0322C108.496 15.0322 108.882 15.8632 108.882 17.2982C108.882 18.7912 108.526 19.5649 107.616 19.5649ZM108.509 12.3139C106.836 12.3139 106.068 13.5689 105.735 14.2839C105.514 14.7562 105.526 14.8952 105.365 14.8952C105.132 14.8952 105.325 14.5159 105.43 14.0699C105.637 13.1916 105.48 12.5206 105.48 12.5206H103.094V23.9682H106.35V20.3389C106.735 20.9925 107.449 21.6908 108.549 21.6908C110.904 21.6908 112.089 19.6985 112.089 17.0069C112.089 13.9562 110.671 12.3139 108.51 12.3139" fill="#100F0D"/>
<path fill-rule="evenodd" clip-rule="evenodd" d="M21.7801 15.0226C21.9991 14.9966 22.2088 14.9953 22.4018 15.0226C22.5135 14.7666 22.5325 14.3256 22.4321 13.8453C22.2831 13.1313 22.0811 12.6993 21.6638 12.7666C21.2465 12.834 21.2311 13.3513 21.3805 14.065C21.4645 14.4666 21.6138 14.8099 21.7801 15.0226Z" fill="#231F20"/>
<path fill-rule="evenodd" clip-rule="evenodd" d="M18.1998 15.5876C18.4981 15.7186 18.6818 15.8056 18.7534 15.7296C18.7998 15.6823 18.7858 15.592 18.7144 15.4756C18.5671 15.2353 18.2641 14.9913 17.9424 14.8543C17.2851 14.5713 16.5008 14.6653 15.8958 15.1C15.6961 15.2463 15.5068 15.449 15.5338 15.572C15.5425 15.6116 15.5725 15.6416 15.6425 15.6516C15.8071 15.6703 16.3825 15.3796 17.0454 15.339C17.5131 15.3103 17.9011 15.4566 18.1998 15.5876Z" fill="#231F20"/>
<path fill-rule="evenodd" clip-rule="evenodd" d="M17.6006 15.9303C17.2116 15.9917 16.9973 16.12 16.8596 16.239C16.7423 16.3417 16.6696 16.4553 16.6703 16.535C16.6706 16.573 16.6869 16.595 16.6999 16.606C16.7176 16.6217 16.7386 16.6303 16.7639 16.6303C16.8516 16.6303 17.0486 16.5513 17.0486 16.5513C17.5896 16.3577 17.9466 16.3813 18.3002 16.4213C18.4956 16.4433 18.5882 16.4553 18.6309 16.3883C18.6436 16.369 18.6589 16.3273 18.6199 16.264C18.5289 16.1163 18.1359 15.8667 17.6006 15.9303Z" fill="#231F20"/>
<path fill-rule="evenodd" clip-rule="evenodd" d="M20.572 17.1878C20.836 17.3174 21.1266 17.2664 21.2213 17.0741C21.316 16.8818 21.1786 16.6204 20.9146 16.4908C20.6506 16.3611 20.36 16.4121 20.2653 16.6044C20.1706 16.7971 20.308 17.0581 20.572 17.1878Z" fill="#231F20"/>
<path fill-rule="evenodd" clip-rule="evenodd" d="M22.2695 15.7049C22.0552 15.7012 21.8772 15.9365 21.8722 16.2309C21.8672 16.5252 22.0372 16.7662 22.2515 16.7698C22.4658 16.7735 22.6438 16.5382 22.6488 16.2438C22.6538 15.9499 22.4838 15.7085 22.2695 15.7049Z" fill="#231F20"/>
<path fill-rule="evenodd" clip-rule="evenodd" d="M7.86296 21.008C7.80963 20.941 7.72196 20.9613 7.63696 20.9813C7.57763 20.9953 7.51063 21.0106 7.43696 21.0096C7.27929 21.0066 7.14563 20.9393 7.07063 20.824C6.97296 20.674 6.97863 20.4503 7.0863 20.1943L7.13663 20.0797C7.30863 19.6937 7.59629 19.048 7.2733 18.4327C7.02996 17.9693 6.6333 17.681 6.1563 17.6203C5.69831 17.5623 5.22697 17.732 4.92631 18.0637C4.45198 18.587 4.37764 19.2993 4.46931 19.551C4.50298 19.643 4.55564 19.6687 4.59364 19.674C4.67431 19.6847 4.79364 19.626 4.86831 19.425L4.88964 19.3597C4.92297 19.2533 4.98497 19.0553 5.08664 18.8967C5.2093 18.7053 5.39997 18.5737 5.62397 18.5253C5.85197 18.4763 6.0853 18.52 6.28064 18.648C6.61297 18.8653 6.74097 19.2727 6.59897 19.661C6.52563 19.862 6.4063 20.2463 6.43263 20.562C6.48597 21.201 6.87896 21.4576 7.23196 21.485C7.57529 21.498 7.81529 21.305 7.87596 21.1643C7.91163 21.081 7.88162 21.0303 7.86196 21.0086" fill="#231F20"/>
<path fill-rule="evenodd" clip-rule="evenodd" d="M11.1285 9.27147C12.2485 7.97748 13.6268 6.85249 14.8618 6.22082C14.9045 6.19882 14.9498 6.24516 14.9268 6.28716C14.8288 6.46482 14.6398 6.84515 14.5801 7.13348C14.5708 7.17848 14.6198 7.21215 14.6578 7.18649C15.4261 6.66282 16.7624 6.10149 17.9348 6.02949C17.9851 6.02649 18.0094 6.09083 17.9694 6.12183C17.7911 6.25849 17.5961 6.44782 17.4538 6.63916C17.4294 6.67182 17.4524 6.71849 17.4931 6.71882C18.3161 6.72482 19.4764 7.01282 20.2328 7.43715C20.2838 7.46582 20.2474 7.56482 20.1901 7.55182C19.0458 7.28948 17.1728 7.09049 15.2268 7.56515C13.4898 7.98882 12.1638 8.64314 11.1968 9.34647C11.1478 9.38214 11.0888 9.31714 11.1285 9.27147ZM16.7058 21.8087L16.7061 21.8094L16.7068 21.8107L16.7058 21.8087ZM21.3238 22.3537C21.3571 22.3397 21.3798 22.3021 21.3761 22.2644C21.3714 22.2181 21.3301 22.1844 21.2838 22.1891C21.2838 22.1891 18.8941 22.5427 16.6364 21.7164C16.8824 20.9171 17.5361 21.2057 18.5244 21.2854C20.3058 21.3917 21.9024 21.1314 23.0824 20.7927C24.1047 20.4994 25.4477 19.9208 26.4907 19.0974C26.8424 19.8701 26.9667 20.7207 26.9667 20.7207C26.9667 20.7207 27.2391 20.6721 27.4667 20.8121C27.6817 20.9444 27.8394 21.2194 27.7317 21.9307C27.5124 23.2594 26.9477 24.3381 25.9984 25.3304C25.4204 25.9524 24.7191 26.493 23.9164 26.8864C23.4901 27.1104 23.0364 27.304 22.5567 27.4604C18.9781 28.6294 15.3148 27.3444 14.1341 24.5851C14.0398 24.3777 13.9601 24.1604 13.8975 23.9334C13.3945 22.1151 13.8215 19.9334 15.1568 18.5601C15.2391 18.4728 15.3231 18.3691 15.3231 18.2394C15.3231 18.1311 15.2541 18.0168 15.1945 17.9354C14.7271 17.2578 13.1088 16.1031 13.4338 13.8684C13.6671 12.2631 15.0711 11.1325 16.3801 11.1995L16.7118 11.2185C17.2791 11.2521 17.7738 11.3248 18.2408 11.3445C19.0224 11.3785 19.7251 11.2648 20.5578 10.5711C20.8384 10.3371 21.0638 10.1341 21.4448 10.0698C21.4848 10.0628 21.5844 10.0271 21.7834 10.0365C21.9868 10.0475 22.1801 10.1031 22.3538 10.2188C23.0211 10.6628 23.1157 11.7385 23.1504 12.5251C23.1701 12.9741 23.2244 14.0608 23.2431 14.3728C23.2854 15.0861 23.4731 15.1864 23.8524 15.3114C24.0657 15.3818 24.2637 15.4341 24.5557 15.5161C25.4391 15.7641 25.9627 16.0158 26.2931 16.3391C26.4901 16.5411 26.5817 16.7558 26.6101 16.9604C26.7141 17.7204 26.0201 18.6591 24.1824 19.5121C22.1738 20.4444 19.7368 20.6804 18.0531 20.4927L17.4631 20.4261C16.1165 20.2447 15.3481 21.9851 16.1565 23.1777C16.6775 23.9464 18.0964 24.4464 19.5161 24.4467C22.7711 24.4471 25.2731 23.0571 26.2037 21.8567L26.2781 21.7507C26.3241 21.6817 26.2861 21.6437 26.2291 21.6827C25.4687 22.2031 22.0914 24.2687 18.4788 23.6471C18.4788 23.6471 18.0398 23.5747 17.6391 23.4191C17.3208 23.2951 16.6541 22.9884 16.5731 22.3047C19.4884 23.2064 21.3238 22.3537 21.3238 22.3537ZM5.31085 15.4254C4.29685 15.6224 3.40319 16.1971 2.85686 16.9911C2.5302 16.7188 1.92186 16.1914 1.8142 15.9858C0.94187 14.3291 2.76619 11.1085 4.04085 9.28947C7.19084 4.7945 12.1241 1.39218 14.4078 2.00951C14.7791 2.11451 16.0088 3.54017 16.0088 3.54017C16.0088 3.54017 13.7258 4.80683 11.6088 6.57249C8.75616 8.76881 6.60184 11.9611 5.31085 15.4254ZM7.0145 23.0271C6.86117 23.0534 6.70451 23.0637 6.54651 23.0597C5.02085 23.0187 3.37319 21.6454 3.20953 20.0168C3.02853 18.2164 3.94852 16.8311 5.57718 16.5024C5.77184 16.4631 6.00717 16.4404 6.26084 16.4538C7.1735 16.5038 8.51816 17.2044 8.82516 19.1924C9.09716 20.9531 8.66516 22.7457 7.0145 23.0271ZM27.6797 19.8391C27.6667 19.7928 27.5814 19.4818 27.4644 19.1068C27.3474 18.7314 27.2264 18.4678 27.2264 18.4678C27.6957 17.7654 27.7041 17.1371 27.6414 16.7814C27.5747 16.3404 27.3911 15.9648 27.0211 15.5761C26.6511 15.1878 25.8941 14.7898 24.8304 14.4911L24.2724 14.3361C24.2697 14.3131 24.2431 13.0205 24.2191 12.4655C24.2014 12.0641 24.1671 11.4378 23.9727 10.8211C23.7411 9.98614 23.3377 9.25547 22.8341 8.78814C24.2241 7.34748 25.0917 5.76016 25.0894 4.39883C25.0854 1.78051 21.8698 0.988186 17.9068 2.62918L17.0671 2.98551C17.0634 2.98184 15.5491 1.49618 15.5265 1.47618C11.0082 -2.4648 -3.11844 13.2375 1.39787 17.0511L2.38486 17.8874C2.12887 18.5508 2.0282 19.3108 2.11053 20.1277C2.21586 21.1774 2.7572 22.1834 3.63486 22.9607C4.46785 23.6987 5.56318 24.1661 6.62584 24.1651C8.3835 28.2154 12.3995 30.7 17.1081 30.84C22.1591 30.99 26.3991 28.62 28.1757 24.3627C28.2921 24.0641 28.7851 22.7177 28.7851 21.5291C28.7851 20.3348 28.1097 19.8391 27.6797 19.8391Z" fill="#231F20"/>
</svg>
