<svg width="100" height="16" viewBox="0 0 100 16" fill="none" xmlns="http://www.w3.org/2000/svg">
<path d="M7.94957 0.510854C12.0196 0.510854 15.3347 3.82595 15.3347 7.9288C15.3347 12.0316 12.0196 15.3467 7.94957 15.3467C3.87955 15.3467 0.564453 12.0645 0.564453 7.9288C0.564453 3.79313 3.87955 0.510854 7.94957 0.510854ZM65.8489 0.346741V13.3446C65.8489 14.3292 66.2428 14.5918 66.9977 14.7888L67.0305 14.9529H62.862V13.3446C62.3697 14.5262 61.3522 15.2483 60.0393 15.2483C57.8073 15.2483 56.3303 13.2133 56.3303 10.1936C56.3303 8.48678 56.8227 7.04258 57.7417 5.95943C58.6279 4.9091 59.8424 4.35112 61.1881 4.35112C61.8446 4.35112 62.4025 4.48241 62.862 4.77781V3.00538C62.862 2.61151 62.7636 2.34893 62.5667 2.15199C62.3041 1.92223 61.8774 1.82376 61.2209 1.88941H61.1881V1.7253L65.8489 0.346741ZM81.6695 4.38394V13.3446C81.6695 14.3292 82.0634 14.5918 82.8183 14.7888V14.9529H78.6498V13.3117C78.1575 14.4933 77.0743 15.2483 75.8599 15.2483C74.4157 15.2483 73.4966 14.5918 73.1356 13.3117L73.0699 12.9835C73.0043 12.6553 72.9715 12.327 72.9715 11.9988V7.2067C72.9715 6.15637 72.7417 5.82814 71.8227 5.7625H71.7898V5.59838L75.9583 4.38394V11.9332C75.9583 13.0491 76.4507 13.6728 77.3697 13.6728C77.9277 13.6728 78.3872 13.3774 78.6498 12.885V7.2067C78.6498 6.12355 78.4529 5.79532 77.6979 5.72967H77.6651V5.56556L81.6695 4.38394ZM51.571 4.35112C52.687 4.35112 53.7702 4.74499 54.4923 5.43427C55.3128 6.22201 55.7395 7.37081 55.7723 8.88066V8.91348H49.5032C49.3719 11.0798 50.7176 12.8522 52.4901 12.9179C53.7701 13.0163 54.8861 12.2286 55.5098 10.9485L55.6739 11.0141C55.3128 13.4102 53.9014 15.2154 51.4397 15.2154C48.6498 15.2154 47.0743 12.885 47.0087 9.96381V9.20889C47.14 7.9288 47.5338 6.78 48.2231 5.92661C48.6498 5.40144 49.1421 5.00757 49.7329 4.74499C50.2253 4.48241 50.9474 4.35112 51.5382 4.35112H51.571ZM94.9955 4.38394C96.768 4.38394 97.8511 5.49991 97.8511 7.40363V13.5087C97.8511 14.2308 98.1794 14.5918 98.9999 14.7888H99.0327V14.9529H94.8314V7.5021C94.8314 6.32048 94.4047 5.72967 93.5185 5.72967C92.7964 5.72967 92.4354 6.25484 92.2384 6.71436C92.2712 6.94411 92.3041 7.17387 92.3041 7.40363V13.6071C92.3041 14.3621 92.5338 14.6246 93.1903 14.7888H93.2231V14.9529H89.3172V7.5021C89.3172 6.32048 88.8577 5.72967 88.0043 5.72967C87.315 5.72967 86.954 6.22201 86.7898 6.61589V13.64C86.7898 14.3949 87.0196 14.6575 87.6761 14.8216H87.7089V14.9857H83.803V7.17387C83.803 6.12355 83.5404 5.79532 82.6542 5.72967H82.6214V5.56556L86.7898 4.41676V6.15637C87.2165 5.04039 88.2012 4.38394 89.4485 4.38394C90.8599 4.38394 91.8445 5.07322 92.1728 6.32048C92.5995 5.13886 93.6826 4.38394 94.9955 4.38394ZM35.1268 1.0032L39.0327 10.1607L42.9386 1.0032H47.1399L47.1071 1.16731L47.0594 1.17792C46.3356 1.34289 45.9583 1.61356 45.9583 2.51304V13.6728C46.024 14.3949 46.4179 14.6246 47.1071 14.7888H47.1399V14.9529H41.7898V14.7888H41.8227C42.5119 14.6246 42.9058 14.3949 42.9715 13.6728V2.80845L37.8183 14.92H37.5229L32.501 3.13668V13.4102C32.501 14.3292 32.8949 14.5918 33.6498 14.7559H33.6826V14.92H30.5973V14.7559H30.6301C31.385 14.5918 31.7789 14.3292 31.7789 13.4102V2.51304C31.7789 1.59401 31.385 1.33142 30.6301 1.16731H30.5973V1.0032H35.1268ZM70.9365 4.38394V13.3446L70.937 13.4052C70.953 14.3401 71.3461 14.5959 72.0853 14.7888L72.1181 14.9529H67.9496V7.2067C67.9496 6.15637 67.7198 5.82814 66.8008 5.7625H66.768V5.59838L70.9365 4.38394ZM19.7658 0.93755C21.768 0.93755 23.4419 4.08853 23.4419 7.9288C23.4419 11.8019 21.8008 14.92 19.7658 14.92C17.7308 14.92 16.0896 11.8019 16.0896 7.9288C16.0896 4.05571 17.7308 0.93755 19.7658 0.93755ZM25.4113 1.65965C26.1662 1.65965 26.7242 4.48241 26.7242 7.9288C26.7242 11.3752 26.1334 14.1979 25.4113 14.1979C24.6964 14.1979 24.1102 11.4314 24.0986 8.032L24.0984 7.9288C24.0984 4.48241 24.6892 1.65965 25.4113 1.65965ZM61.6804 4.94193C60.3675 4.94193 59.547 6.68153 59.547 9.373C59.547 10.6531 59.7767 11.7691 60.1706 12.524C60.5316 13.2461 61.0568 13.64 61.6476 13.64C62.2384 13.64 62.6651 13.3774 62.862 12.885V5.66403C62.6323 5.20451 62.2056 4.94193 61.6804 4.94193ZM51.5382 4.97475C50.3566 4.97475 49.6673 6.38613 49.5688 8.35549V8.38832H53.1465C53.2122 6.84565 52.9496 5.82814 52.4572 5.3358C52.1947 5.10604 51.8993 4.97475 51.5382 4.97475ZM69.3281 0.445209C70.28 0.445209 71.0021 1.16731 71.0021 2.11917C71.0021 3.07103 70.28 3.79313 69.3281 3.79313C68.3763 3.79313 67.6542 3.07103 67.6542 2.11917C67.6542 1.16731 68.3763 0.445209 69.3281 0.445209Z" fill="black"/>
</svg>
