<svg width="94" height="21" viewBox="0 0 94 21" fill="none" xmlns="http://www.w3.org/2000/svg">
<path d="M39.0322 4.84673V16.8467H36.9489V7.43006H36.9211L33.1989 16.8467H31.81L28.0044 7.43006H27.9766V16.8467H26.06V4.84673H29.06L32.5044 13.7356H32.56L36.1989 4.84673H39.0322ZM40.7544 5.7634C40.7544 5.43006 40.8655 5.15229 41.1155 4.93006C41.3655 4.70784 41.6433 4.59673 41.9766 4.59673C42.3378 4.59673 42.6433 4.70784 42.8655 4.93006C43.0877 5.15229 43.2266 5.43006 43.2266 5.7634C43.2266 6.09673 43.1155 6.37451 42.8655 6.59673C42.6155 6.81895 42.3378 6.93006 41.9766 6.93006C41.6155 6.93006 41.3377 6.81895 41.1155 6.59673C40.8933 6.34673 40.7544 6.06895 40.7544 5.7634ZM43.0044 8.23562V16.8467H40.9766V8.23562H43.0044ZM49.1433 15.3745C49.4489 15.3745 49.7822 15.319 50.1433 15.1523C50.5044 15.0134 50.8377 14.819 51.1433 14.5967V16.4856C50.81 16.68 50.4489 16.8189 50.0322 16.9023C49.6155 16.9856 49.1711 17.0411 48.6711 17.0411C47.3933 17.0411 46.3655 16.6523 45.5878 15.8467C44.7822 15.0412 44.3933 14.0134 44.3933 12.7912C44.3933 11.4023 44.81 10.2634 45.6155 9.37451C46.4211 8.48562 47.56 8.04117 49.06 8.04117C49.4489 8.04117 49.8378 8.09673 50.1989 8.18006C50.5878 8.2634 50.8933 8.40229 51.1155 8.5134V10.4578C50.81 10.2356 50.4766 10.0412 50.1711 9.93006C49.8378 9.81895 49.5044 9.73562 49.1711 9.73562C48.3655 9.73562 47.7266 9.98559 47.2266 10.5134C46.7266 11.0411 46.5044 11.7356 46.5044 12.6245C46.5044 13.4856 46.7544 14.1801 47.2266 14.6523C47.6989 15.1245 48.3377 15.3745 49.1433 15.3745ZM56.8933 8.09673C57.06 8.09673 57.1989 8.09673 57.3378 8.12451C57.4766 8.15229 57.5878 8.18006 57.6711 8.20784V10.2634C57.56 10.1801 57.4211 10.0967 57.1989 10.0411C56.9766 9.98559 56.7544 9.93006 56.4489 9.93006C55.9489 9.93006 55.5322 10.1523 55.1989 10.569C54.8655 10.9856 54.6711 11.6245 54.6711 12.5134V16.8467H52.6433V8.23562H54.6711V9.59673H54.6989C54.8933 9.12451 55.1711 8.7634 55.5322 8.48562C55.9211 8.23562 56.3655 8.09673 56.8933 8.09673ZM57.7822 12.68C57.7822 11.2634 58.1989 10.1245 58.9766 9.29118C59.7822 8.45784 60.8933 8.04117 62.31 8.04117C63.6433 8.04117 64.6989 8.43006 65.4489 9.23562C66.1989 10.0412 66.5878 11.1245 66.5878 12.4856C66.5878 13.8745 66.1711 14.9856 65.3933 15.819C64.5877 16.6523 63.5044 17.069 62.1155 17.069C60.7822 17.069 59.7266 16.6801 58.9489 15.9023C58.1711 15.0967 57.7822 14.0134 57.7822 12.68ZM59.8933 12.5967C59.8933 13.4856 60.0877 14.1801 60.5044 14.6523C60.9211 15.1245 61.5044 15.3745 62.2544 15.3745C62.9766 15.3745 63.56 15.1523 63.9489 14.6523C64.3378 14.1801 64.5322 13.4856 64.5322 12.5411C64.5322 11.6245 64.3378 10.9301 63.9489 10.4301C63.56 9.95784 62.9766 9.70784 62.2822 9.70784C61.5322 9.70784 60.9766 9.95781 60.56 10.4578C60.0877 10.9856 59.8933 11.68 59.8933 12.5967ZM69.6155 10.5134C69.6155 10.7911 69.6989 11.0411 69.8933 11.2078C70.0878 11.3745 70.4766 11.569 71.1155 11.819C71.9211 12.1523 72.5044 12.5134 72.81 12.9023C73.1433 13.319 73.31 13.7912 73.31 14.3745C73.31 15.1801 73.0044 15.819 72.3655 16.319C71.7544 16.819 70.8933 17.0411 69.8377 17.0411C69.4766 17.0411 69.0878 16.9856 68.6433 16.9023C68.1989 16.8189 67.8378 16.7078 67.5322 16.5689V14.569C67.8933 14.819 68.31 15.0411 68.7266 15.18C69.1433 15.3189 69.5322 15.4023 69.8933 15.4023C70.3378 15.4023 70.6989 15.3467 70.8933 15.2078C71.1155 15.069 71.2266 14.8745 71.2266 14.569C71.2266 14.2912 71.1155 14.0689 70.8933 13.8467C70.6711 13.6523 70.2266 13.4301 69.6155 13.1801C68.8655 12.8745 68.3378 12.5134 68.0322 12.1245C67.7266 11.7356 67.56 11.2356 67.56 10.6245C67.56 9.84673 67.8655 9.20781 68.4766 8.70781C69.0878 8.20781 69.8933 7.95784 70.8655 7.95784C71.1711 7.95784 71.5044 7.98562 71.8655 8.06895C72.2266 8.15229 72.56 8.23562 72.81 8.31895V10.2912C72.5322 10.1245 72.2266 9.95781 71.8655 9.81892C71.5044 9.68004 71.1433 9.62451 70.81 9.62451C70.4211 9.62451 70.1155 9.70784 69.9211 9.84673C69.7266 10.0412 69.6155 10.2356 69.6155 10.5134ZM74.1711 12.68C74.1711 11.2634 74.5878 10.1245 75.3655 9.29118C76.1711 8.45784 77.2822 8.04117 78.6989 8.04117C80.0322 8.04117 81.0878 8.43006 81.8378 9.23562C82.5878 10.0412 82.9766 11.1245 82.9766 12.4856C82.9766 13.8745 82.56 14.9856 81.7822 15.819C80.9766 16.6523 79.8933 17.069 78.5044 17.069C77.1711 17.069 76.1155 16.6801 75.3378 15.9023C74.5878 15.0967 74.1711 14.0134 74.1711 12.68ZM76.2822 12.5967C76.2822 13.4856 76.4766 14.1801 76.8933 14.6523C77.31 15.1245 77.8933 15.3745 78.6433 15.3745C79.3655 15.3745 79.9489 15.1523 80.3378 14.6523C80.7266 14.1801 80.9211 13.4856 80.9211 12.5411C80.9211 11.6245 80.7266 10.9301 80.3378 10.4301C79.9489 9.95784 79.3655 9.70784 78.6711 9.70784C77.9211 9.70784 77.3655 9.95781 76.9489 10.4578C76.5044 10.9856 76.2822 11.68 76.2822 12.5967ZM89.7266 9.90226H86.6989V16.8467H84.6433V9.90226H83.1989V8.23562H84.6433V7.04117C84.6433 6.15229 84.9489 5.40229 85.5322 4.81895C86.1155 4.23562 86.8655 3.95784 87.7822 3.95784C88.0322 3.95784 88.2544 3.98562 88.4489 3.98562C88.6433 3.98562 88.81 4.04117 88.9489 4.09673V5.84673C88.8933 5.81895 88.7544 5.7634 88.5877 5.70784C88.4211 5.65229 88.2266 5.62451 88.0044 5.62451C87.5878 5.62451 87.2544 5.7634 87.0322 6.0134C86.81 6.2634 86.6989 6.68006 86.6989 7.18006V8.20784H89.7266V6.2634L91.7544 5.65229V8.20784H93.81V9.87451H91.7544V13.9023C91.7544 14.4301 91.8655 14.7912 92.0322 15.0134C92.2266 15.2356 92.5322 15.3467 92.9489 15.3467C93.06 15.3467 93.1989 15.319 93.3655 15.2634C93.5322 15.2078 93.6711 15.1523 93.7822 15.069V16.7356C93.6433 16.819 93.4489 16.8745 93.1433 16.9301C92.8378 16.9856 92.56 17.0134 92.2544 17.0134C91.3933 17.0134 90.7544 16.7911 90.3378 16.3467C89.9211 15.9023 89.6989 15.2078 89.6989 14.2912L89.7266 9.90226Z" fill="#737373"/>
<path d="M9.53223 0.846741H0.0322266V10.3467H9.53223V0.846741Z" fill="#F25022"/>
<path d="M20.0321 0.846741H10.5321V10.3467H20.0321V0.846741Z" fill="#7FBA00"/>
<path d="M9.53223 11.3467H0.0322266V20.8467H9.53223V11.3467Z" fill="#00A4EF"/>
<path d="M20.0321 11.3467H10.5321V20.8467H20.0321V11.3467Z" fill="#FFB900"/>
</svg>
