<svg width="45" height="46" viewBox="0 0 45 46" fill="none" xmlns="http://www.w3.org/2000/svg">
<g clip-path="url(#clip0_62_3337)">
<path d="M28.0951 0.551025H16.8753C11.7197 0.551025 7.52539 4.74723 7.52539 9.90503V36.0963C7.52539 41.2541 11.7197 45.4503 16.8753 45.4503H28.0951C33.2507 45.4503 37.445 41.2541 37.445 36.0963V9.90503C37.445 4.74723 33.2507 0.551025 28.0951 0.551025ZM24.3552 39.8379H20.6152C19.583 39.8379 18.7453 38.9997 18.7453 37.9671C18.7453 36.9344 19.583 36.0963 20.6152 36.0963H24.3552C25.3874 36.0963 26.2252 36.9344 26.2252 37.9671C26.2252 38.9997 25.3874 39.8379 24.3552 39.8379Z" fill="#FB8E7B"/>
</g>
<defs>
<clipPath id="clip0_62_3337">
<rect width="44.8795" height="44.8992" fill="white" transform="translate(0.0454102 0.55127)"/>
</clipPath>
</defs>
</svg>
