<svg width="73" height="26" viewBox="0 0 73 26" fill="none" xmlns="http://www.w3.org/2000/svg">
<path d="M65.6582 10.5347C66.5314 10.5347 67.2393 9.82681 67.2393 8.95357C67.2393 8.08031 66.5314 7.37242 65.6582 7.37242C64.785 7.37242 64.077 8.08031 64.077 8.95357C64.077 9.82681 64.785 10.5347 65.6582 10.5347Z" fill="#FF4500"/>
<path d="M43.0747 15.6958C43.8504 15.6958 44.2979 15.114 44.268 14.5472C44.2531 14.2489 44.2233 14.055 44.1934 13.9058C43.7161 11.8473 42.0455 10.3258 40.0616 10.3258C37.7048 10.3258 35.7955 12.4589 35.7955 15.0842C35.7955 17.7095 37.7048 19.8426 40.0616 19.8426C41.5383 19.8426 42.5974 19.3056 43.3581 18.4553C43.731 18.0377 43.6564 17.3963 43.209 17.083C42.836 16.8294 42.3736 16.9189 42.0306 17.2023C41.7024 17.4858 41.0759 18.0526 40.0616 18.0526C38.8683 18.0526 37.8539 17.0233 37.6302 15.6659H43.0747V15.6958ZM40.0467 12.1307C41.1207 12.1307 42.0455 12.9661 42.3885 14.1146H37.7048C38.0479 12.9511 38.9727 12.1307 40.0467 12.1307Z" fill="#222222"/>
<path d="M35.8849 11.2656C35.8849 10.8181 35.5567 10.4601 35.1391 10.3855C33.8413 10.1916 32.6182 10.6689 31.9171 11.549V11.4296C31.9171 10.8777 31.4696 10.5346 31.0221 10.5346C30.5299 10.5346 30.1271 10.9374 30.1271 11.4296V18.7387C30.1271 19.2161 30.4851 19.6337 30.9625 19.6636C31.4845 19.6934 31.9171 19.2906 31.9171 18.7686V14.9947C31.9171 13.324 33.1701 11.9517 34.9004 12.1456C34.9601 12.1456 35.0197 12.1456 35.0794 12.1456C35.5269 12.1158 35.8849 11.728 35.8849 11.2656Z" fill="#222222"/>
<path d="M66.5532 12.2202C66.5532 11.728 66.1504 11.3252 65.6582 11.3252C65.166 11.3252 64.7632 11.728 64.7632 12.2202C64.7632 12.25 64.7632 18.4851 64.7632 18.7685C64.7632 19.2608 65.166 19.6635 65.6582 19.6635C66.1504 19.6635 66.5532 19.2608 66.5532 18.7685C66.5532 18.5 66.5532 12.2649 66.5532 12.2202Z" fill="#222222"/>
<path d="M53.2477 7.26796C53.2477 6.77572 52.845 6.37297 52.3527 6.37297C51.8605 6.37297 51.4577 6.77572 51.4577 7.26796V11.2507C50.8462 10.6391 50.0854 10.3408 49.1755 10.3408C46.8187 10.3408 44.9094 12.4738 44.9094 15.0991C44.9094 17.7244 46.8187 19.8575 49.1755 19.8575C50.0854 19.8575 50.8611 19.5442 51.4726 18.9327C51.5472 19.3503 51.9201 19.6636 52.3527 19.6636C52.845 19.6636 53.2477 19.2608 53.2477 18.7686V7.26796ZM49.1904 18.0824C47.8181 18.0824 46.7143 16.7548 46.7143 15.0991C46.7143 13.4583 47.8181 12.1158 49.1904 12.1158C50.5627 12.1158 51.6666 13.4434 51.6666 15.0991C51.6666 16.7548 50.5478 18.0824 49.1904 18.0824Z" fill="#222222"/>
<path d="M62.5855 7.26796C62.5855 6.77572 62.1827 6.37297 61.6905 6.37297C61.1982 6.37297 60.7955 6.77572 60.7955 7.26796V11.2507C60.1839 10.6391 59.4232 10.3408 58.5133 10.3408C56.1565 10.3408 54.2472 12.4738 54.2472 15.0991C54.2472 17.7244 56.1565 19.8575 58.5133 19.8575C59.4232 19.8575 60.1988 19.5442 60.8104 18.9327C60.885 19.3503 61.2579 19.6636 61.6905 19.6636C62.1827 19.6636 62.5855 19.2608 62.5855 18.7686V7.26796ZM58.5133 18.0824C57.141 18.0824 56.0371 16.7548 56.0371 15.0991C56.0371 13.4583 57.141 12.1158 58.5133 12.1158C59.8856 12.1158 60.9894 13.4434 60.9894 15.0991C60.9894 16.7548 59.8856 18.0824 58.5133 18.0824Z" fill="#222222"/>
<path d="M71.0877 18.7835V12.1307H71.8783C72.2959 12.1307 72.6689 11.8175 72.6987 11.3849C72.7285 10.9225 72.3556 10.5347 71.9081 10.5347H71.0877V9.28169C71.0877 8.80437 70.7297 8.38671 70.2524 8.35687C69.7303 8.32704 69.2977 8.72978 69.2977 9.25186V10.5496H68.5519C68.1342 10.5496 67.7613 10.8628 67.7315 11.2954C67.7017 11.7578 68.0746 12.1457 68.5221 12.1457H69.2828V18.7984C69.2828 19.2907 69.6856 19.6934 70.1778 19.6934C70.6999 19.6636 71.0877 19.2757 71.0877 18.7835Z" fill="#222222"/>
<path d="M12.6152 25.3467C19.5187 25.3467 25.1152 19.7502 25.1152 12.8467C25.1152 5.94318 19.5187 0.346741 12.6152 0.346741C5.71167 0.346741 0.115234 5.94318 0.115234 12.8467C0.115234 19.7502 5.71167 25.3467 12.6152 25.3467Z" fill="#FF4500"/>
<path d="M20.9536 12.8467C20.9536 11.8324 20.1332 11.0269 19.1338 11.0269C18.6415 11.0269 18.194 11.2208 17.8659 11.5341C16.6129 10.6391 14.8975 10.0573 12.9882 9.98275L13.8235 6.07464L16.5383 6.65638C16.5681 7.34254 17.135 7.89445 17.836 7.89445C18.552 7.89445 19.1338 7.3127 19.1338 6.59671C19.1338 5.88072 18.552 5.29898 17.836 5.29898C17.3289 5.29898 16.8814 5.59731 16.6726 6.02989L13.6445 5.38848C13.555 5.37356 13.4655 5.38848 13.4059 5.43323C13.3313 5.47798 13.2865 5.55256 13.2716 5.64206L12.3468 9.99767C10.4077 10.0573 8.66243 10.6391 7.39453 11.549C7.06637 11.2357 6.61888 11.0418 6.12663 11.0418C5.11231 11.0418 4.30682 11.8622 4.30682 12.8616C4.30682 13.6074 4.75432 14.2339 5.38081 14.5174C5.35098 14.6964 5.33606 14.8754 5.33606 15.0693C5.33606 17.8736 8.60277 20.1558 12.6302 20.1558C16.6576 20.1558 19.9243 17.8885 19.9243 15.0693C19.9243 14.8903 19.9094 14.6964 19.8796 14.5174C20.5061 14.2339 20.9536 13.5925 20.9536 12.8467ZM8.4536 14.1444C8.4536 13.4285 9.03534 12.8467 9.75133 12.8467C10.4673 12.8467 11.0491 13.4285 11.0491 14.1444C11.0491 14.8604 10.4673 15.4422 9.75133 15.4422C9.03534 15.4571 8.4536 14.8604 8.4536 14.1444ZM15.7179 17.5901C14.8229 18.4851 13.1225 18.5448 12.6302 18.5448C12.1231 18.5448 10.4226 18.4702 9.5425 17.5901C9.40826 17.4559 9.40826 17.2471 9.5425 17.1128C9.67675 16.9786 9.88558 16.9786 10.0198 17.1128C10.5867 17.6796 11.78 17.8736 12.6302 17.8736C13.4805 17.8736 14.6887 17.6796 15.2406 17.1128C15.3748 16.9786 15.5837 16.9786 15.7179 17.1128C15.8372 17.2471 15.8372 17.4559 15.7179 17.5901ZM15.4792 15.4571C14.7633 15.4571 14.1815 14.8754 14.1815 14.1594C14.1815 13.4434 14.7633 12.8616 15.4792 12.8616C16.1952 12.8616 16.777 13.4434 16.777 14.1594C16.777 14.8604 16.1952 15.4571 15.4792 15.4571Z" fill="white"/>
</svg>
