<svg width="68" height="67" viewBox="0 0 68 67" fill="none" xmlns="http://www.w3.org/2000/svg">
<circle cx="33.9648" cy="33.5" r="33.5" fill="#CACACA" fill-opacity="0.19"/>
<g clip-path="url(#clip0_30_53)">
<path d="M34.4614 15.6665L34.6777 15.6793L34.7859 15.694L34.8977 15.7178L35.1012 15.7802C35.2418 15.832 35.3754 15.901 35.4991 15.9855L35.6897 16.1358L36.1572 16.5355C39.8556 19.6074 44.5298 21.2569 49.3371 21.1867L49.9641 21.1683C50.374 21.1496 50.7783 21.269 51.1124 21.5073C51.4464 21.7456 51.6909 22.0891 51.8066 22.4828C52.7074 25.5474 52.9831 28.7618 52.6172 31.935C52.2513 35.1082 51.2512 38.1755 49.6765 40.9545C48.1017 43.7336 45.9844 46.1678 43.4503 48.1124C40.9162 50.0571 38.0171 51.4724 34.9252 52.2745C34.6234 52.3528 34.3067 52.3528 34.0049 52.2745C30.9128 51.4726 28.0135 50.0574 25.4792 48.1129C22.9449 46.1683 20.8274 43.7342 19.2525 40.9551C17.6775 38.176 16.6773 35.1086 16.3113 31.9353C15.9453 28.762 16.2209 25.5475 17.1217 22.4828C17.2374 22.0891 17.4819 21.7456 17.8159 21.5073C18.15 21.269 18.5543 21.1496 18.9642 21.1683C23.9829 21.3977 28.9065 19.7457 32.7711 16.5355L33.2532 16.123L33.4292 15.9855C33.5529 15.901 33.6865 15.832 33.8271 15.7802L34.0324 15.7178C34.1042 15.7005 34.1771 15.6876 34.2506 15.6793L34.4614 15.6665ZM41.2631 29.037C41.0928 28.8665 40.8906 28.7313 40.668 28.6391C40.4455 28.5468 40.2069 28.4993 39.966 28.4993C39.725 28.4993 39.4865 28.5468 39.2639 28.6391C39.0414 28.7313 38.8392 28.8665 38.6689 29.037L32.6317 35.0723L30.2612 32.7037L30.0889 32.5515C29.7204 32.2666 29.2573 32.1326 28.7936 32.1768C28.3299 32.2209 27.9004 32.44 27.5923 32.7893C27.2843 33.1387 27.1208 33.5922 27.135 34.0578C27.1492 34.5234 27.3401 34.9661 27.6689 35.296L31.3356 38.9627L31.5079 39.1148C31.8606 39.3885 32.3011 39.524 32.7466 39.496C33.1922 39.468 33.6122 39.2783 33.9279 38.9627L41.2612 31.6293L41.4134 31.457C41.687 31.1043 41.8225 30.6638 41.7945 30.2183C41.7665 29.7727 41.5769 29.3527 41.2612 29.037H41.2631Z" fill="#FB8E7B"/>
</g>
<defs>
<clipPath id="clip0_30_53">
<rect width="44" height="44" fill="white" transform="translate(12.4648 12)"/>
</clipPath>
</defs>
</svg>
