<svg width="81" height="21" viewBox="0 0 81 21" fill="none" xmlns="http://www.w3.org/2000/svg">
<path d="M25.3726 16.662L26.3514 14.3744C27.4231 15.168 28.8208 15.5881 30.2189 15.5881C31.2441 15.5881 31.8964 15.1915 31.8964 14.5846C31.873 12.9038 25.7221 14.211 25.6754 9.98527C25.652 7.83767 27.5627 6.18026 30.2657 6.18026C31.873 6.18026 33.4809 6.57724 34.6224 7.48781L33.7078 9.82423C32.6575 9.14889 31.3603 8.67808 30.1257 8.67808C29.2869 8.67808 28.7275 9.07471 28.7275 9.58862C28.751 11.2461 34.9489 10.3355 35.0187 14.3744C35.0187 16.5688 33.1544 18.1096 30.4982 18.1096C28.5414 18.1096 26.7477 17.6429 25.3726 16.662ZM64.3446 13.546C64.0975 13.985 63.7382 14.3503 63.3033 14.6046C62.8685 14.8589 62.3739 14.9929 61.8702 14.993C60.3003 14.993 59.0278 13.7178 59.0278 12.1449C59.0278 10.5721 60.3003 9.29694 61.8702 9.29694C62.3739 9.29694 62.8685 9.43103 63.3033 9.68525C63.7382 9.93948 64.0975 10.3049 64.3446 10.7439L67.0656 9.23342C66.0465 7.41196 64.1023 6.18026 61.8702 6.18026C58.5824 6.18026 55.9172 8.85048 55.9172 12.1449C55.9172 15.439 58.5824 18.1096 61.8702 18.1096C64.1023 18.1096 66.0465 16.8779 67.0656 15.0565L64.3446 13.546ZM36.7844 17.8761H40.1861V1.21503H36.7847L36.7844 17.8761ZM68.7835 1.21503V17.8761H72.1853V12.8844L76.2162 17.8761H80.5643L75.4383 11.9461L80.1913 6.41283H76.0297L72.1853 11.0132V1.21503H68.7835ZM50.6663 6.4135V7.76783C50.1072 6.83387 48.7325 6.18026 47.288 6.18026C44.3056 6.18026 41.9524 8.8184 41.9524 12.1333C41.9524 15.4481 44.3056 18.1096 47.288 18.1096C48.7325 18.1096 50.1072 17.456 50.6663 16.5221V17.8761H54.0679V6.4135H50.6663ZM50.6663 13.5691C50.1771 14.3861 49.1518 14.9926 48.0104 14.9926C46.4402 14.9926 45.1677 13.7178 45.1677 12.1449C45.1677 10.5721 46.4402 9.29694 48.0104 9.29694C49.1518 9.29694 50.1771 9.92713 50.6663 10.7672V13.5691Z" fill="black"/>
<path d="M7.40804 0.846741C6.30566 0.846741 5.41213 1.74228 5.41213 2.84667C5.41187 3.10903 5.46329 3.36889 5.56344 3.61139C5.66361 3.85389 5.81055 4.07428 5.99589 4.26C6.18123 4.44571 6.40133 4.5931 6.64362 4.69374C6.88592 4.79439 7.14568 4.84633 7.40804 4.84659H9.40429V2.84667C9.40478 2.31675 9.19466 1.80837 8.8203 1.43332C8.44594 1.05827 7.93796 0.847272 7.40804 0.846741ZM7.40804 6.17988H2.08527C0.982892 6.17988 0.0893555 7.07541 0.0893555 8.18013C0.0893555 9.28451 0.982892 10.1801 2.08527 10.1801H7.40838C8.51041 10.1801 9.40429 9.28451 9.40429 8.18013C9.40429 7.07541 8.51041 6.17988 7.40804 6.17988Z" fill="#2FBDEE"/>
<path d="M20.0498 8.18013C20.0498 7.07541 19.156 6.17988 18.0536 6.17988C16.9512 6.17988 16.0577 7.07541 16.0577 8.18013V10.1801H18.0536C18.5835 10.1795 19.0915 9.96851 19.4658 9.59351C19.8402 9.21842 20.0502 8.71004 20.0498 8.18013ZM14.7271 8.18013V2.84667C14.7275 2.31675 14.5174 1.80837 14.1431 1.43332C13.7687 1.05827 13.2607 0.847272 12.7308 0.846741C11.6284 0.846741 10.7349 1.74228 10.7349 2.84667V8.1798C10.7349 9.28483 11.6284 10.1804 12.7308 10.1804C13.2607 10.1798 13.7687 9.96883 14.1431 9.59383C14.5174 9.21874 14.7275 8.71004 14.7271 8.18013Z" fill="#29AD72"/>
<path d="M12.7308 20.8467C13.2607 20.8463 13.7687 20.6353 14.1431 20.2602C14.5174 19.8852 14.7275 19.3767 14.7271 18.8469C14.7275 18.3169 14.5174 17.8085 14.1431 17.4335C13.7687 17.0585 13.2607 16.8475 12.7308 16.8469H10.7349V18.8469C10.7349 19.9513 11.6284 20.8467 12.7308 20.8467ZM12.7308 15.5136H18.0539C19.156 15.5136 20.0498 14.6181 20.0498 13.5134C20.0502 12.9835 19.8402 12.4751 19.4658 12.1C19.0915 11.725 18.5835 11.514 18.0536 11.5134H12.7308C11.6284 11.5134 10.7349 12.409 10.7349 13.5134C10.7346 13.7757 10.7861 14.0356 10.8862 14.2781C10.9863 14.5206 11.1333 14.741 11.3187 14.9267C11.504 15.1124 11.7241 15.2598 11.9664 15.3604C12.2087 15.4611 12.4685 15.5134 12.7308 15.5136Z" fill="#E9A929"/>
<path d="M0.0893565 13.5134C0.0890931 13.7757 0.14051 14.0356 0.240671 14.2781C0.340833 14.5206 0.487777 14.741 0.673115 14.9267C0.858454 15.1124 1.07855 15.2598 1.32085 15.3604C1.56315 15.4611 1.8229 15.513 2.08527 15.5133C2.61518 15.5127 3.12319 15.3017 3.49755 14.9267C3.8719 14.5516 4.08196 14.0433 4.08152 13.5134V11.5134H2.08527C0.982892 11.5134 0.0893565 12.409 0.0893565 13.5134ZM5.41213 13.5134V18.8465C5.41213 19.9513 6.30566 20.8467 7.40804 20.8467C7.93796 20.8463 8.44594 20.6353 8.8203 20.2602C9.19466 19.8852 9.40478 19.3767 9.40429 18.8469V13.5134C9.40454 13.251 9.35313 12.9911 9.25296 12.7486C9.1528 12.506 9.00579 12.2857 8.82046 12.0999C8.63504 11.9142 8.4149 11.7669 8.17254 11.6662C7.93023 11.5656 7.67045 11.5137 7.40804 11.5134C6.30566 11.5134 5.41213 12.409 5.41213 13.5134Z" fill="#DC1C50"/>
</svg>
