<svg width="93" height="13" viewBox="0 0 93 13" fill="none" xmlns="http://www.w3.org/2000/svg">
<path d="M79.5183 5.60707V12.8467H81.8324V8.02029H90.2952V12.8467H92.6092V5.60707H79.5183ZM81.5679 3.25996H90.4935C91.7497 3.02856 92.6423 1.90459 92.9067 0.846741H79.1547C79.4191 1.90459 80.3447 2.9955 81.5679 3.25996ZM72.477 12.8467C73.634 12.3509 74.2621 11.4914 74.5266 10.4996H64.1134V0.879799H61.7662V12.8467H72.477ZM44.4109 3.22691H52.6753C53.9315 2.86327 54.9563 1.90459 55.2208 0.879799H42.1299V7.95418H52.8406V10.4335H44.444C43.1216 10.7972 41.9977 11.6897 41.4357 12.8467H55.1547V5.60707H44.444L44.4109 3.22691ZM24.0473 3.25996H32.9729C34.2291 3.02856 35.1547 1.90459 35.3861 0.846741H21.601C21.8655 1.90459 22.7911 2.9955 24.0473 3.25996ZM24.0473 7.98724H32.9729C34.2291 7.75583 35.1547 6.63187 35.3861 5.57401H21.601C21.8655 6.63187 22.7911 7.72277 24.0473 7.98724ZM24.0473 12.8467H32.9729C34.2291 12.6153 35.1547 11.4914 35.3861 10.4335H21.601C21.8655 11.4914 22.7911 12.6153 24.0473 12.8467Z" fill="#5E5E5E"/>
<path d="M0.807617 0.879799C1.07208 1.93765 1.9977 2.9955 3.22084 3.25996H6.98943L7.18778 3.32608V12.8137H9.53488V3.32608L9.73323 3.25996H13.5018C14.758 2.92939 15.6506 1.93765 15.915 0.879799V0.846741L0.807617 0.879799Z" fill="#5E5E5E"/>
</svg>
