<svg width="59" height="21" viewBox="0 0 59 21" fill="none" xmlns="http://www.w3.org/2000/svg">
<path d="M4.22133 15.1305C4.46479 15.7766 4.80186 16.329 5.23259 16.7878C5.66332 17.2466 6.17361 17.5977 6.76346 17.8412C7.35337 18.0846 7.99475 18.2063 8.68765 18.2063C9.36185 18.2063 9.99384 18.0799 10.5837 17.8271C11.1737 17.5742 11.6886 17.2185 12.1287 16.7597C12.5687 16.3009 12.9105 15.7531 13.154 15.1164C13.3974 14.4797 13.5191 13.7682 13.5191 12.9816V0.846741H16.4686V20.5097H13.5472V18.6838C12.8918 19.3767 12.1193 19.9104 11.2298 20.285C10.3402 20.6595 9.38056 20.8467 8.35059 20.8467C7.30185 20.8467 6.32341 20.6641 5.41514 20.299C4.50693 19.9338 3.72036 19.4142 3.05562 18.74C2.39087 18.0658 1.86647 17.256 1.4826 16.3102C1.09867 15.3646 0.906738 14.3112 0.906738 13.1501V0.846741H3.85617V12.9816C3.85617 13.7682 3.97787 14.4844 4.22133 15.1305Z" fill="#010202"/>
<path d="M21.5526 0.846741V8.00965C22.208 7.35423 22.9665 6.83461 23.8279 6.45068C24.6893 6.06675 25.6257 5.87482 26.6369 5.87482C27.6856 5.87482 28.6686 6.07141 29.5863 6.46467C30.5039 6.85792 31.2997 7.39165 31.9739 8.06584C32.6481 8.74003 33.1818 9.53586 33.5751 10.4535C33.9683 11.3711 34.1649 12.3449 34.1649 13.3749C34.1649 14.4048 33.9683 15.3739 33.5751 16.2821C33.1818 17.1904 32.6481 17.9816 31.9739 18.6557C31.2997 19.3299 30.5039 19.8636 29.5863 20.2568C28.6686 20.6501 27.6855 20.8467 26.6369 20.8467C25.6256 20.8467 24.6846 20.6547 23.8138 20.2708C22.9431 19.8869 22.1799 19.3673 21.5245 18.7118V20.5096H18.7155V0.846741H21.5526ZM21.8756 15.313C22.1284 15.9123 22.4796 16.4367 22.929 16.8861C23.3785 17.3356 23.9028 17.6914 24.502 17.9536C25.1013 18.2157 25.7474 18.3468 26.4403 18.3468C27.1145 18.3468 27.7511 18.2157 28.3503 17.9536C28.9496 17.6914 29.4692 17.3356 29.9094 16.8861C30.3494 16.4367 30.7005 15.9123 30.9627 15.313C31.2249 14.7138 31.356 14.0678 31.356 13.3749C31.356 12.682 31.2249 12.0312 30.9627 11.4226C30.7005 10.814 30.3494 10.285 29.9094 9.83551C29.4693 9.38613 28.9496 9.03496 28.3503 8.78217C27.751 8.52939 27.1144 8.4029 26.4403 8.4029C25.7661 8.4029 25.1294 8.52933 24.5302 8.78217C23.9309 9.03502 23.4066 9.38613 22.9571 9.83551C22.5077 10.285 22.1519 10.814 21.8897 11.4226C21.6276 12.0312 21.4965 12.682 21.4965 13.3749C21.4964 14.0678 21.6228 14.7138 21.8756 15.313Z" fill="#010202"/>
<path d="M35.7657 10.4816C36.1402 9.58268 36.6553 8.79151 37.3106 8.108C37.966 7.42448 38.7432 6.88609 39.6421 6.49284C40.541 6.09959 41.5148 5.90299 42.5634 5.90299C43.5934 5.90299 44.5485 6.09026 45.4287 6.46475C46.3088 6.83929 47.0672 7.35897 47.7039 8.02378C48.3406 8.68852 48.8369 9.47509 49.1926 10.3833C49.5485 11.2916 49.7264 12.2794 49.7264 13.3468V14.2738H38.0691C38.1628 14.8543 38.35 15.3927 38.6309 15.8889C38.9118 16.3852 39.2629 16.8159 39.6842 17.181C40.1056 17.5463 40.5831 17.8319 41.1168 18.0378C41.6506 18.2438 42.217 18.3468 42.8163 18.3468C44.5205 18.3468 45.8969 17.6445 46.9455 16.24L48.9961 17.7568C48.2845 18.7119 47.4044 19.461 46.3557 20.0041C45.307 20.5471 44.1272 20.8187 42.8164 20.8187C41.7489 20.8187 40.7518 20.6313 39.8248 20.2568C38.8978 19.8824 38.0926 19.358 37.4091 18.6838C36.7256 18.0096 36.1872 17.2184 35.7939 16.3102C35.4007 15.402 35.204 14.4141 35.204 13.3467C35.2039 12.3355 35.3912 11.3804 35.7657 10.4816ZM39.7123 9.37198C38.9164 10.0368 38.3874 10.9216 38.1253 12.0265H46.8613C46.6178 10.9216 46.0981 10.0368 45.3022 9.37198C44.5063 8.70723 43.5747 8.37483 42.5073 8.37483C41.4399 8.37483 40.5082 8.70723 39.7123 9.37198Z" fill="#010202"/>
<path d="M55.0353 9.69504C54.4361 10.3505 54.1364 11.24 54.1364 12.3636V20.5097H51.2993V6.18385H54.1082V7.95353C54.4641 7.373 54.9276 6.91417 55.4987 6.57711C56.0699 6.23998 56.7487 6.07141 57.5353 6.07141H58.5184V8.71188H57.3386C56.4023 8.71194 55.6345 9.03962 55.0353 9.69504Z" fill="#010202"/>
</svg>
